<?xml version="1.0" standalone="no"?>
 <!DOCTYPE svg PUBLIC "-//W3C//DTD SVG 1.1//EN" 
 "http://www.w3.org/Graphics/SVG/1.1/DTD/svg11.dtd"> 
<svg
  xmlns:svg="http://www.w3.org/2000/svg"
  xmlns="http://www.w3.org/2000/svg"
  xmlns:xlink="http://www.w3.org/1999/xlink"
  version="1.1"
  width="29.700220cm" height="21.000720cm" viewBox="0 0 297002200 210007200">
<title>SVG Picture created as Gardener_01-F_Silkscreen.svg date 2022/12/30 21:32:48 </title>
  <desc>Picture generated by PCBNEW </desc>
<g style="fill:#000000; fill-opacity:1.000000;stroke:#000000; stroke-opacity:1.000000;
stroke-linecap:round; stroke-linejoin:round;"
 transform="translate(0 0) scale(1 1)">
</g>
<g style="fill:#000000; fill-opacity:0.0; 
stroke:#000000; stroke-width:0.000000; stroke-opacity:1; 
stroke-linecap:round; stroke-linejoin:round;">
</g>
<g style="fill:#000000; fill-opacity:0.0; 
stroke:#000000; stroke-width:150000.000000; stroke-opacity:1; 
stroke-linecap:round; stroke-linejoin:round;">
<text x="90000000.000000" y="78350000.000000"
textLength="9619049.000000" font-size="1333333.000000" lengthAdjust="spacingAndGlyphs"
text-anchor="middle" opacity="0">10.0000 mm</text>
<g class="stroked-text"><desc>10.0000 mm</desc>
<path d="M85952380 78302380
L85380952 78302380
" />
<path d="M85666666 78302380
L85666666 77302380
L85571428 77445238
L85476190 77540476
L85380952 77588095
" />
<path d="M86571428 77302380
L86666666 77302380
L86761904 77350000
L86809523 77397619
L86857142 77492857
L86904761 77683333
L86904761 77921428
L86857142 78111904
L86809523 78207142
L86761904 78254761
L86666666 78302380
L86571428 78302380
L86476190 78254761
L86428571 78207142
L86380952 78111904
L86333333 77921428
L86333333 77683333
L86380952 77492857
L86428571 77397619
L86476190 77350000
L86571428 77302380
" />
<path d="M87333333 78207142
L87380952 78254761
L87333333 78302380
L87285714 78254761
L87333333 78207142
L87333333 78302380
" />
<path d="M88000000 77302380
L88095238 77302380
L88190476 77350000
L88238095 77397619
L88285714 77492857
L88333333 77683333
L88333333 77921428
L88285714 78111904
L88238095 78207142
L88190476 78254761
L88095238 78302380
L88000000 78302380
L87904761 78254761
L87857142 78207142
L87809523 78111904
L87761904 77921428
L87761904 77683333
L87809523 77492857
L87857142 77397619
L87904761 77350000
L88000000 77302380
" />
<path d="M88952380 77302380
L89047619 77302380
L89142857 77350000
L89190476 77397619
L89238095 77492857
L89285714 77683333
L89285714 77921428
L89238095 78111904
L89190476 78207142
L89142857 78254761
L89047619 78302380
L88952380 78302380
L88857142 78254761
L88809523 78207142
L88761904 78111904
L88714285 77921428
L88714285 77683333
L88761904 77492857
L88809523 77397619
L88857142 77350000
L88952380 77302380
" />
<path d="M89904761 77302380
L90000000 77302380
L90095238 77350000
L90142857 77397619
L90190476 77492857
L90238095 77683333
L90238095 77921428
L90190476 78111904
L90142857 78207142
L90095238 78254761
L90000000 78302380
L89904761 78302380
L89809523 78254761
L89761904 78207142
L89714285 78111904
L89666666 77921428
L89666666 77683333
L89714285 77492857
L89761904 77397619
L89809523 77350000
L89904761 77302380
" />
<path d="M90857142 77302380
L90952380 77302380
L91047619 77350000
L91095238 77397619
L91142857 77492857
L91190476 77683333
L91190476 77921428
L91142857 78111904
L91095238 78207142
L91047619 78254761
L90952380 78302380
L90857142 78302380
L90761904 78254761
L90714285 78207142
L90666666 78111904
L90619047 77921428
L90619047 77683333
L90666666 77492857
L90714285 77397619
L90761904 77350000
L90857142 77302380
" />
<path d="M92380952 78302380
L92380952 77635714
" />
<path d="M92380952 77730952
L92428571 77683333
L92523809 77635714
L92666666 77635714
L92761904 77683333
L92809523 77778571
L92809523 78302380
" />
<path d="M92809523 77778571
L92857142 77683333
L92952380 77635714
L93095238 77635714
L93190476 77683333
L93238095 77778571
L93238095 78302380
" />
<path d="M93714285 78302380
L93714285 77635714
" />
<path d="M93714285 77730952
L93761904 77683333
L93857142 77635714
L94000000 77635714
L94095238 77683333
L94142857 77778571
L94142857 78302380
" />
<path d="M94142857 77778571
L94190476 77683333
L94285714 77635714
L94428571 77635714
L94523809 77683333
L94571428 77778571
L94571428 78302380
" />
</g><path d="M85000000 78500000
L85000000 78413580
" />
<path d="M95000000 78500000
L95000000 78413580
" />
<path d="M85000000 79000000
L95000000 79000000
" />
<path d="M85000000 79000000
L95000000 79000000
" />
<path d="M85000000 79000000
L86126504 79586421
" />
<path d="M85000000 79000000
L86126504 78413579
" />
<path d="M95000000 79000000
L93873496 78413579
" />
<path d="M95000000 79000000
L93873496 79586421
" />
<text x="5000000.000000" y="77350000.000000"
textLength="9814048.000000" font-size="1333333.000000" lengthAdjust="spacingAndGlyphs"
text-anchor="middle" opacity="0">10.0000 mm</text>
<g class="stroked-text"><desc>10.0000 mm</desc>
<path d="M952380 77302380
L380952 77302380
" />
<path d="M666666 77302380
L666666 76302380
L571428 76445238
L476190 76540476
L380952 76588095
" />
<path d="M1571428 76302380
L1666666 76302380
L1761904 76350000
L1809523 76397619
L1857142 76492857
L1904761 76683333
L1904761 76921428
L1857142 77111904
L1809523 77207142
L1761904 77254761
L1666666 77302380
L1571428 77302380
L1476190 77254761
L1428571 77207142
L1380952 77111904
L1333333 76921428
L1333333 76683333
L1380952 76492857
L1428571 76397619
L1476190 76350000
L1571428 76302380
" />
<path d="M2333333 77207142
L2380952 77254761
L2333333 77302380
L2285714 77254761
L2333333 77207142
L2333333 77302380
" />
<path d="M2999999 76302380
L3095238 76302380
L3190476 76350000
L3238095 76397619
L3285714 76492857
L3333333 76683333
L3333333 76921428
L3285714 77111904
L3238095 77207142
L3190476 77254761
L3095238 77302380
L2999999 77302380
L2904761 77254761
L2857142 77207142
L2809523 77111904
L2761904 76921428
L2761904 76683333
L2809523 76492857
L2857142 76397619
L2904761 76350000
L2999999 76302380
" />
<path d="M3952380 76302380
L4047619 76302380
L4142857 76350000
L4190476 76397619
L4238095 76492857
L4285714 76683333
L4285714 76921428
L4238095 77111904
L4190476 77207142
L4142857 77254761
L4047619 77302380
L3952380 77302380
L3857142 77254761
L3809523 77207142
L3761904 77111904
L3714285 76921428
L3714285 76683333
L3761904 76492857
L3809523 76397619
L3857142 76350000
L3952380 76302380
" />
<path d="M4904761 76302380
L4999999 76302380
L5095238 76350000
L5142857 76397619
L5190476 76492857
L5238095 76683333
L5238095 76921428
L5190476 77111904
L5142857 77207142
L5095238 77254761
L4999999 77302380
L4904761 77302380
L4809523 77254761
L4761904 77207142
L4714285 77111904
L4666666 76921428
L4666666 76683333
L4714285 76492857
L4761904 76397619
L4809523 76350000
L4904761 76302380
" />
<path d="M5857142 76302380
L5952380 76302380
L6047619 76350000
L6095238 76397619
L6142857 76492857
L6190476 76683333
L6190476 76921428
L6142857 77111904
L6095238 77207142
L6047619 77254761
L5952380 77302380
L5857142 77302380
L5761904 77254761
L5714285 77207142
L5666666 77111904
L5619047 76921428
L5619047 76683333
L5666666 76492857
L5714285 76397619
L5761904 76350000
L5857142 76302380
" />
<path d="M7380952 77302380
L7380952 76635714
" />
<path d="M7380952 76730952
L7428571 76683333
L7523809 76635714
L7666666 76635714
L7761904 76683333
L7809523 76778571
L7809523 77302380
" />
<path d="M7809523 76778571
L7857142 76683333
L7952380 76635714
L8095238 76635714
L8190476 76683333
L8238095 76778571
L8238095 77302380
" />
<path d="M8714285 77302380
L8714285 76635714
" />
<path d="M8714285 76730952
L8761904 76683333
L8857142 76635714
L9000000 76635714
L9095238 76683333
L9142857 76778571
L9142857 77302380
" />
<path d="M9142857 76778571
L9190476 76683333
L9285714 76635714
L9428571 76635714
L9523809 76683333
L9571428 76778571
L9571428 77302380
" />
</g><path d="M0 77500000
L0 77413580
" />
<path d="M10000000 77500000
L10000000 77413580
" />
<path d="M0 78000000
L10000000 78000000
" />
<path d="M0 78000000
L10000000 78000000
" />
<path d="M0 78000000
L1126504 78586421
" />
<path d="M0 78000000
L1126504 77413579
" />
<path d="M10000000 78000000
L8873496 77413579
" />
<path d="M10000000 78000000
L8873496 78586421
" />
<g transform="rotate(-90.000000 -4150000.000000 65000000.000000)">
<text x="-4150000.000000" y="65500000.000000"
textLength="9814048.000000" font-size="1333333.000000" lengthAdjust="spacingAndGlyphs"
text-anchor="middle" opacity="0">18.0000 mm</text>
</g>
<g class="stroked-text"><desc>18.0000 mm</desc>
<path d="M-3697619 69047619
L-3697619 69619047
" />
<path d="M-3697619 69333333
L-4697619 69333333
L-4554761 69428571
L-4459523 69523809
L-4411904 69619047
" />
<path d="M-4269047 68476190
L-4316666 68571428
L-4364285 68619047
L-4459523 68666666
L-4507142 68666666
L-4602380 68619047
L-4650000 68571428
L-4697619 68476190
L-4697619 68285714
L-4650000 68190476
L-4602380 68142857
L-4507142 68095238
L-4459523 68095238
L-4364285 68142857
L-4316666 68190476
L-4269047 68285714
L-4269047 68476190
L-4221428 68571428
L-4173809 68619047
L-4078571 68666666
L-3888095 68666666
L-3792857 68619047
L-3745238 68571428
L-3697619 68476190
L-3697619 68285714
L-3745238 68190476
L-3792857 68142857
L-3888095 68095238
L-4078571 68095238
L-4173809 68142857
L-4221428 68190476
L-4269047 68285714
" />
<path d="M-3792857 67666666
L-3745238 67619047
L-3697619 67666666
L-3745238 67714285
L-3792857 67666666
L-3697619 67666666
" />
<path d="M-4697619 67000000
L-4697619 66904761
L-4650000 66809523
L-4602380 66761904
L-4507142 66714285
L-4316666 66666666
L-4078571 66666666
L-3888095 66714285
L-3792857 66761904
L-3745238 66809523
L-3697619 66904761
L-3697619 67000000
L-3745238 67095238
L-3792857 67142857
L-3888095 67190476
L-4078571 67238095
L-4316666 67238095
L-4507142 67190476
L-4602380 67142857
L-4650000 67095238
L-4697619 67000000
" />
<path d="M-4697619 66047619
L-4697619 65952380
L-4650000 65857142
L-4602380 65809523
L-4507142 65761904
L-4316666 65714285
L-4078571 65714285
L-3888095 65761904
L-3792857 65809523
L-3745238 65857142
L-3697619 65952380
L-3697619 66047619
L-3745238 66142857
L-3792857 66190476
L-3888095 66238095
L-4078571 66285714
L-4316666 66285714
L-4507142 66238095
L-4602380 66190476
L-4650000 66142857
L-4697619 66047619
" />
<path d="M-4697619 65095238
L-4697619 65000000
L-4650000 64904761
L-4602380 64857142
L-4507142 64809523
L-4316666 64761904
L-4078571 64761904
L-3888095 64809523
L-3792857 64857142
L-3745238 64904761
L-3697619 65000000
L-3697619 65095238
L-3745238 65190476
L-3792857 65238095
L-3888095 65285714
L-4078571 65333333
L-4316666 65333333
L-4507142 65285714
L-4602380 65238095
L-4650000 65190476
L-4697619 65095238
" />
<path d="M-4697619 64142857
L-4697619 64047619
L-4650000 63952380
L-4602380 63904761
L-4507142 63857142
L-4316666 63809523
L-4078571 63809523
L-3888095 63857142
L-3792857 63904761
L-3745238 63952380
L-3697619 64047619
L-3697619 64142857
L-3745238 64238095
L-3792857 64285714
L-3888095 64333333
L-4078571 64380952
L-4316666 64380952
L-4507142 64333333
L-4602380 64285714
L-4650000 64238095
L-4697619 64142857
" />
<path d="M-3697619 62619047
L-4364285 62619047
" />
<path d="M-4269047 62619047
L-4316666 62571428
L-4364285 62476190
L-4364285 62333333
L-4316666 62238095
L-4221428 62190476
L-3697619 62190476
" />
<path d="M-4221428 62190476
L-4316666 62142857
L-4364285 62047619
L-4364285 61904761
L-4316666 61809523
L-4221428 61761904
L-3697619 61761904
" />
<path d="M-3697619 61285714
L-4364285 61285714
" />
<path d="M-4269047 61285714
L-4316666 61238095
L-4364285 61142857
L-4364285 61000000
L-4316666 60904761
L-4221428 60857142
L-3697619 60857142
" />
<path d="M-4221428 60857142
L-4316666 60809523
L-4364285 60714285
L-4364285 60571428
L-4316666 60476190
L-4221428 60428571
L-3697619 60428571
" />
</g><path d="M-3500000 74000000
L-3586420 74000000
" />
<path d="M-3500000 56000000
L-3586420 56000000
" />
<path d="M-3000000 74000000
L-3000000 56000000
" />
<path d="M-3000000 74000000
L-3000000 56000000
" />
<path d="M-3000000 74000000
L-2413579 72873496
" />
<path d="M-3000000 74000000
L-3586421 72873496
" />
<path d="M-3000000 56000000
L-3586421 57126504
" />
<path d="M-3000000 56000000
L-2413579 57126504
" />
<g transform="rotate(-90.000000 76430000.000000 39680000.000000)">
<text x="76430000.000000" y="40180000.000000"
textLength="3099762.000000" font-size="1333333.000000" lengthAdjust="spacingAndGlyphs"
text-anchor="middle" opacity="0">R11</text>
</g>
<g class="stroked-text"><desc>R11</desc>
<path d="M76882380 40322857
L76406190 40656190
" />
<path d="M76882380 40894285
L75882380 40894285
L75882380 40513333
L75930000 40418095
L75977619 40370476
L76072857 40322857
L76215714 40322857
L76310952 40370476
L76358571 40418095
L76406190 40513333
L76406190 40894285
" />
<path d="M76882380 39370476
L76882380 39941904
" />
<path d="M76882380 39656190
L75882380 39656190
L76025238 39751428
L76120476 39846666
L76168095 39941904
" />
<path d="M76882380 38418095
L76882380 38989523
" />
<path d="M76882380 38703809
L75882380 38703809
L76025238 38799047
L76120476 38894285
L76168095 38989523
" />
</g><text x="194025000.000000" y="28405000.000000"
textLength="1909286.000000" font-size="1333333.000000" lengthAdjust="spacingAndGlyphs"
text-anchor="middle" opacity="0">J3</text>
<g class="stroked-text"><desc>J3</desc>
<path d="M193691666 27357380
L193691666 28071666
L193644047 28214523
L193548809 28309761
L193405952 28357380
L193310714 28357380
" />
<path d="M194072619 27357380
L194691666 27357380
L194358333 27738333
L194501190 27738333
L194596428 27785952
L194644047 27833571
L194691666 27928809
L194691666 28166904
L194644047 28262142
L194596428 28309761
L194501190 28357380
L194215476 28357380
L194120238 28309761
L194072619 28262142
" />
</g><g transform="rotate(-90.000000 18820000.000000 16750000.000000)">
<text x="18820000.000000" y="17250000.000000"
textLength="1909286.000000" font-size="1333333.000000" lengthAdjust="spacingAndGlyphs"
text-anchor="middle" opacity="0">J6</text>
</g>
<g class="stroked-text"><desc>J6</desc>
<path d="M18272380 17083333
L18986666 17083333
L19129523 17130952
L19224761 17226190
L19272380 17369047
L19272380 17464285
" />
<path d="M18272380 16178571
L18272380 16369047
L18320000 16464285
L18367619 16511904
L18510476 16607142
L18700952 16654761
L19081904 16654761
L19177142 16607142
L19224761 16559523
L19272380 16464285
L19272380 16273809
L19224761 16178571
L19177142 16130952
L19081904 16083333
L18843809 16083333
L18748571 16130952
L18700952 16178571
L18653333 16273809
L18653333 16464285
L18700952 16559523
L18748571 16607142
L18843809 16654761
" />
</g><text x="157310000.000000" y="3630000.000000"
textLength="2147381.000000" font-size="1333333.000000" lengthAdjust="spacingAndGlyphs"
text-anchor="middle" opacity="0">R8</text>
<g class="stroked-text"><desc>R8</desc>
<path d="M157143333 3582380
L156810000 3106190
" />
<path d="M156571904 3582380
L156571904 2582380
L156952857 2582380
L157048095 2630000
L157095714 2677619
L157143333 2772857
L157143333 2915714
L157095714 3010952
L157048095 3058571
L156952857 3106190
L156571904 3106190
" />
<path d="M157714761 3010952
L157619523 2963333
L157571904 2915714
L157524285 2820476
L157524285 2772857
L157571904 2677619
L157619523 2630000
L157714761 2582380
L157905238 2582380
L158000476 2630000
L158048095 2677619
L158095714 2772857
L158095714 2820476
L158048095 2915714
L158000476 2963333
L157905238 3010952
L157714761 3010952
L157619523 3058571
L157571904 3106190
L157524285 3201428
L157524285 3391904
L157571904 3487142
L157619523 3534761
L157714761 3582380
L157905238 3582380
L158000476 3534761
L158048095 3487142
L158095714 3391904
L158095714 3201428
L158048095 3106190
L158000476 3058571
L157905238 3010952
" />
</g><text x="174810000.000000" y="3630000.000000"
textLength="2147381.000000" font-size="1333333.000000" lengthAdjust="spacingAndGlyphs"
text-anchor="middle" opacity="0">R9</text>
<g class="stroked-text"><desc>R9</desc>
<path d="M174643333 3582380
L174310000 3106190
" />
<path d="M174071904 3582380
L174071904 2582380
L174452857 2582380
L174548095 2630000
L174595714 2677619
L174643333 2772857
L174643333 2915714
L174595714 3010952
L174548095 3058571
L174452857 3106190
L174071904 3106190
" />
<path d="M175119523 3582380
L175310000 3582380
L175405238 3534761
L175452857 3487142
L175548095 3344285
L175595714 3153809
L175595714 2772857
L175548095 2677619
L175500476 2630000
L175405238 2582380
L175214761 2582380
L175119523 2630000
L175071904 2677619
L175024285 2772857
L175024285 3010952
L175071904 3106190
L175119523 3153809
L175214761 3201428
L175405238 3201428
L175500476 3153809
L175548095 3106190
L175595714 3010952
" />
</g><g transform="rotate(-90.000000 175621000.000000 65659000.000000)">
<text x="175621000.000000" y="66159000.000000"
textLength="2147381.000000" font-size="1333333.000000" lengthAdjust="spacingAndGlyphs"
text-anchor="middle" opacity="0">R2</text>
</g>
<g class="stroked-text"><desc>R2</desc>
<path d="M176073380 65825666
L175597190 66159000
" />
<path d="M176073380 66397095
L175073380 66397095
L175073380 66016142
L175121000 65920904
L175168619 65873285
L175263857 65825666
L175406714 65825666
L175501952 65873285
L175549571 65920904
L175597190 66016142
L175597190 66397095
" />
<path d="M175168619 65444714
L175121000 65397095
L175073380 65301857
L175073380 65063761
L175121000 64968523
L175168619 64920904
L175263857 64873285
L175359095 64873285
L175501952 64920904
L176073380 65492333
L176073380 64873285
" />
</g><text x="157000000.000000" y="64130000.000000"
textLength="2147381.000000" font-size="1333333.000000" lengthAdjust="spacingAndGlyphs"
text-anchor="middle" opacity="0">R4</text>
<g class="stroked-text"><desc>R4</desc>
<path d="M156833333 64082380
L156500000 63606190
" />
<path d="M156261904 64082380
L156261904 63082380
L156642857 63082380
L156738095 63130000
L156785714 63177619
L156833333 63272857
L156833333 63415714
L156785714 63510952
L156738095 63558571
L156642857 63606190
L156261904 63606190
" />
<path d="M157690476 63415714
L157690476 64082380
" />
<path d="M157452380 63034761
L157214285 63749047
L157833333 63749047
" />
</g><text x="121000000.000000" y="11000000.000000"
textLength="2909286.000000" font-size="1333333.000000" lengthAdjust="spacingAndGlyphs"
text-anchor="middle" opacity="0">BT1</text>
<g class="stroked-text"><desc>BT1</desc>
<path d="M120214285 10428571
L120357142 10476190
L120404761 10523809
L120452380 10619047
L120452380 10761904
L120404761 10857142
L120357142 10904761
L120261904 10952380
L119880952 10952380
L119880952 9952380
L120214285 9952380
L120309523 10000000
L120357142 10047619
L120404761 10142857
L120404761 10238095
L120357142 10333333
L120309523 10380952
L120214285 10428571
L119880952 10428571
" />
<path d="M120738095 9952380
L121309523 9952380
" />
<path d="M121023809 10952380
L121023809 9952380
" />
<path d="M122166666 10952380
L121595238 10952380
" />
<path d="M121880952 10952380
L121880952 9952380
L121785714 10095238
L121690476 10190476
L121595238 10238095
" />
</g><g transform="rotate(-90.000000 179621000.000000 65659000.000000)">
<text x="179621000.000000" y="66159000.000000"
textLength="2147381.000000" font-size="1333333.000000" lengthAdjust="spacingAndGlyphs"
text-anchor="middle" opacity="0">R3</text>
</g>
<g class="stroked-text"><desc>R3</desc>
<path d="M180073380 65825666
L179597190 66159000
" />
<path d="M180073380 66397095
L179073380 66397095
L179073380 66016142
L179121000 65920904
L179168619 65873285
L179263857 65825666
L179406714 65825666
L179501952 65873285
L179549571 65920904
L179597190 66016142
L179597190 66397095
" />
<path d="M179073380 65492333
L179073380 64873285
L179454333 65206619
L179454333 65063761
L179501952 64968523
L179549571 64920904
L179644809 64873285
L179882904 64873285
L179978142 64920904
L180025761 64968523
L180073380 65063761
L180073380 65349476
L180025761 65444714
L179978142 65492333
" />
</g><text x="140310000.000000" y="3630000.000000"
textLength="2147381.000000" font-size="1333333.000000" lengthAdjust="spacingAndGlyphs"
text-anchor="middle" opacity="0">R7</text>
<g class="stroked-text"><desc>R7</desc>
<path d="M140143333 3582380
L139810000 3106190
" />
<path d="M139571904 3582380
L139571904 2582380
L139952857 2582380
L140048095 2630000
L140095714 2677619
L140143333 2772857
L140143333 2915714
L140095714 3010952
L140048095 3058571
L139952857 3106190
L139571904 3106190
" />
<path d="M140476666 2582380
L141143333 2582380
L140714761 3582380
" />
</g><g transform="rotate(-180.000000 47408000.000000 111509944.000000)">
<text x="47408000.000000" y="112009944.000000"
textLength="2290238.000000" font-size="1333333.000000" lengthAdjust="spacingAndGlyphs"
text-anchor="middle" opacity="0">M3</text>
</g>
<g class="stroked-text"><desc>M3</desc>
<path d="M48217523 111057563
L48217523 112057563
L47884190 111343277
L47550857 112057563
L47550857 111057563
" />
<path d="M47169904 112057563
L46550857 112057563
L46884190 111676610
L46741333 111676610
L46646095 111628991
L46598476 111581372
L46550857 111486134
L46550857 111248039
L46598476 111152801
L46646095 111105182
L46741333 111057563
L47027047 111057563
L47122285 111105182
L47169904 111152801
" />
</g><g transform="rotate(-270.000000 24766633.000000 58190000.000000)">
<text x="24766633.000000" y="58690000.000000"
textLength="3195000.000000" font-size="1333333.000000" lengthAdjust="spacingAndGlyphs"
text-anchor="middle" opacity="0">CH3</text>
</g>
<g class="stroked-text"><desc>CH3</desc>
<path d="M24409490 57499523
L24361871 57451904
L24314252 57309047
L24314252 57213809
L24361871 57070952
L24457109 56975714
L24552347 56928095
L24742823 56880476
L24885680 56880476
L25076156 56928095
L25171394 56975714
L25266633 57070952
L25314252 57213809
L25314252 57309047
L25266633 57451904
L25219013 57499523
" />
<path d="M24314252 57928095
L25314252 57928095
" />
<path d="M24838061 57928095
L24838061 58499523
" />
<path d="M24314252 58499523
L25314252 58499523
" />
<path d="M25314252 58880476
L25314252 59499523
L24933299 59166190
L24933299 59309047
L24885680 59404285
L24838061 59451904
L24742823 59499523
L24504728 59499523
L24409490 59451904
L24361871 59404285
L24314252 59309047
L24314252 59023333
L24361871 58928095
L24409490 58880476
" />
</g></g>
<g style="fill:#000000; fill-opacity:0.0; 
stroke:#000000; stroke-width:1000000.000000; stroke-opacity:1; 
stroke-linecap:round; stroke-linejoin:round;">
<g transform="rotate(-180.000000 38408000.000000 89009944.000000)">
<text x="38408000.000000" y="91509944.000000"
textLength="4956905.000000" font-size="6666666.000000" lengthAdjust="spacingAndGlyphs"
text-anchor="middle" opacity="0">3</text>
</g>
<g class="stroked-text"><desc>3</desc>
<path d="M40074666 91748039
L36979428 91748039
L38646095 89843277
L37931809 89843277
L37455619 89605182
L37217523 89367086
L36979428 88890896
L36979428 87700420
L37217523 87224229
L37455619 86986134
L37931809 86748039
L39360380 86748039
L39836571 86986134
L40074666 87224229
" />
</g></g>
<g style="fill:#000000; fill-opacity:0.0; 
stroke:#000000; stroke-width:150000.000000; stroke-opacity:1; 
stroke-linecap:round; stroke-linejoin:round;">
<g transform="rotate(-270.000000 22226633.000000 58190000.000000)">
<text x="22226633.000000" y="58690000.000000"
textLength="4300000.000000" font-size="1333333.000000" lengthAdjust="spacingAndGlyphs"
text-anchor="middle" opacity="0">CH4</text>
</g>
<g class="stroked-text"><desc>CH4</desc>
<path d="M21869490 57499523
L21821871 57451904
L21774252 57309047
L21774252 57213809
L21821871 57070952
L21917109 56975714
L22012347 56928095
L22202823 56880476
L22345680 56880476
L22536156 56928095
L22631394 56975714
L22726633 57070952
L22774252 57213809
L22774252 57309047
L22726633 57451904
L22679013 57499523
" />
<path d="M21774252 57928095
L22774252 57928095
" />
<path d="M22298061 57928095
L22298061 58499523
" />
<path d="M21774252 58499523
L22774252 58499523
" />
<path d="M22440918 59404285
L21774252 59404285
" />
<path d="M22821871 59166190
L22107585 58928095
L22107585 59547142
" />
</g><g transform="rotate(-270.000000 27306633.000000 58190000.000000)">
<text x="27306633.000000" y="58690000.000000"
textLength="3195000.000000" font-size="1333333.000000" lengthAdjust="spacingAndGlyphs"
text-anchor="middle" opacity="0">CH2</text>
</g>
<g class="stroked-text"><desc>CH2</desc>
<path d="M26949490 57499523
L26901871 57451904
L26854252 57309047
L26854252 57213809
L26901871 57070952
L26997109 56975714
L27092347 56928095
L27282823 56880476
L27425680 56880476
L27616156 56928095
L27711394 56975714
L27806633 57070952
L27854252 57213809
L27854252 57309047
L27806633 57451904
L27759013 57499523
" />
<path d="M26854252 57928095
L27854252 57928095
" />
<path d="M27378061 57928095
L27378061 58499523
" />
<path d="M26854252 58499523
L27854252 58499523
" />
<path d="M27759013 58928095
L27806633 58975714
L27854252 59070952
L27854252 59309047
L27806633 59404285
L27759013 59451904
L27663775 59499523
L27568537 59499523
L27425680 59451904
L26854252 58880476
L26854252 59499523
" />
</g></g>
<g style="fill:#000000; fill-opacity:0.0; 
stroke:#000000; stroke-width:1000000.000000; stroke-opacity:1; 
stroke-linecap:round; stroke-linejoin:round;">
<g transform="rotate(-180.000000 21408000.000000 89009944.000000)">
<text x="21408000.000000" y="91509944.000000"
textLength="4956905.000000" font-size="6666666.000000" lengthAdjust="spacingAndGlyphs"
text-anchor="middle" opacity="0">4</text>
</g>
<g class="stroked-text"><desc>4</desc>
<path d="M20455619 90081372
L20455619 86748039
" />
<path d="M21646095 91986134
L22836571 88414705
L19741333 88414705
" />
</g></g>
<g style="fill:#000000; fill-opacity:0.0; 
stroke:#000000; stroke-width:150000.000000; stroke-opacity:1; 
stroke-linecap:round; stroke-linejoin:round;">
<g transform="rotate(-270.000000 29846633.000000 58190000.000000)">
<text x="29846633.000000" y="58690000.000000"
textLength="4300000.000000" font-size="1333333.000000" lengthAdjust="spacingAndGlyphs"
text-anchor="middle" opacity="0">CH1</text>
</g>
<g class="stroked-text"><desc>CH1</desc>
<path d="M29489490 57499523
L29441871 57451904
L29394252 57309047
L29394252 57213809
L29441871 57070952
L29537109 56975714
L29632347 56928095
L29822823 56880476
L29965680 56880476
L30156156 56928095
L30251394 56975714
L30346633 57070952
L30394252 57213809
L30394252 57309047
L30346633 57451904
L30299013 57499523
" />
<path d="M29394252 57928095
L30394252 57928095
" />
<path d="M29918061 57928095
L29918061 58499523
" />
<path d="M29394252 58499523
L30394252 58499523
" />
<path d="M29394252 59499523
L29394252 58928095
" />
<path d="M29394252 59213809
L30394252 59213809
L30251394 59118571
L30156156 59023333
L30108537 58928095
" />
</g><g transform="rotate(-270.000000 32386633.000000 58190000.000000)">
<text x="32386633.000000" y="58690000.000000"
textLength="3242619.000000" font-size="1333333.000000" lengthAdjust="spacingAndGlyphs"
text-anchor="middle" opacity="0">GND</text>
</g>
<g class="stroked-text"><desc>GND</desc>
<path d="M32886633 57428095
L32934252 57332857
L32934252 57190000
L32886633 57047142
L32791394 56951904
L32696156 56904285
L32505680 56856666
L32362823 56856666
L32172347 56904285
L32077109 56951904
L31981871 57047142
L31934252 57190000
L31934252 57285238
L31981871 57428095
L32029490 57475714
L32362823 57475714
L32362823 57285238
" />
<path d="M31934252 57904285
L32934252 57904285
L31934252 58475714
L32934252 58475714
" />
<path d="M31934252 58951904
L32934252 58951904
L32934252 59190000
L32886633 59332857
L32791394 59428095
L32696156 59475714
L32505680 59523333
L32362823 59523333
L32172347 59475714
L32077109 59428095
L31981871 59332857
L31934252 59190000
L31934252 58951904
" />
</g><g transform="rotate(-270.000000 19680812.000000 58215270.000000)">
<text x="19680812.000000" y="58715270.000000"
textLength="3052143.000000" font-size="1333333.000000" lengthAdjust="spacingAndGlyphs"
text-anchor="middle" opacity="0">VCC</text>
</g>
<g class="stroked-text"><desc>VCC</desc>
<path d="M20228431 56881936
L19228431 57215270
L20228431 57548603
" />
<path d="M19323669 58453365
L19276050 58405746
L19228431 58262889
L19228431 58167650
L19276050 58024793
L19371288 57929555
L19466526 57881936
L19657002 57834317
L19799859 57834317
L19990335 57881936
L20085573 57929555
L20180812 58024793
L20228431 58167650
L20228431 58262889
L20180812 58405746
L20133192 58453365
" />
<path d="M19323669 59453365
L19276050 59405746
L19228431 59262889
L19228431 59167650
L19276050 59024793
L19371288 58929555
L19466526 58881936
L19657002 58834317
L19799859 58834317
L19990335 58881936
L20085573 58929555
L20180812 59024793
L20228431 59167650
L20228431 59262889
L20180812 59405746
L20133192 59453365
" />
</g></g>
<g style="fill:#000000; fill-opacity:0.0; 
stroke:#000000; stroke-width:1000000.000000; stroke-opacity:1; 
stroke-linecap:round; stroke-linejoin:round;">
<g transform="rotate(-180.000000 72408000.000000 89009944.000000)">
<text x="72408000.000000" y="91509944.000000"
textLength="4956905.000000" font-size="6666666.000000" lengthAdjust="spacingAndGlyphs"
text-anchor="middle" opacity="0">1</text>
</g>
<g class="stroked-text"><desc>1</desc>
<path d="M70979428 86748039
L73836571 86748039
" />
<path d="M72408000 86748039
L72408000 91748039
L72884190 91033753
L73360380 90557563
L73836571 90319467
" />
</g><g transform="rotate(-180.000000 55408000.000000 89009944.000000)">
<text x="55408000.000000" y="91509944.000000"
textLength="6061905.000000" font-size="6666666.000000" lengthAdjust="spacingAndGlyphs"
text-anchor="middle" opacity="0">2</text>
</g>
<g class="stroked-text"><desc>2</desc>
<path d="M56836571 91271848
L56598476 91509944
L56122285 91748039
L54931809 91748039
L54455619 91509944
L54217523 91271848
L53979428 90795658
L53979428 90319467
L54217523 89605182
L57074666 86748039
L53979428 86748039
" />
</g></g>
<g style="fill:#000000; fill-opacity:0.0; 
stroke:#000000; stroke-width:150000.000000; stroke-opacity:1; 
stroke-linecap:round; stroke-linejoin:round;">
<text x="167000000.000000" y="68870000.000000"
textLength="3252381.000000" font-size="1333333.000000" lengthAdjust="spacingAndGlyphs"
text-anchor="middle" opacity="0">R1</text>
<g class="stroked-text"><desc>R1</desc>
<path d="M166833333 68822380
L166500000 68346190
" />
<path d="M166261904 68822380
L166261904 67822380
L166642857 67822380
L166738095 67870000
L166785714 67917619
L166833333 68012857
L166833333 68155714
L166785714 68250952
L166738095 68298571
L166642857 68346190
L166261904 68346190
" />
<path d="M167785714 68822380
L167214285 68822380
" />
<path d="M167500000 68822380
L167500000 67822380
L167404761 67965238
L167309523 68060476
L167214285 68108095
" />
</g><text x="124400000.000000" y="61225000.000000"
textLength="3004524.000000" font-size="1333333.000000" lengthAdjust="spacingAndGlyphs"
text-anchor="middle" opacity="0">RV1</text>
<g class="stroked-text"><desc>RV1</desc>
<path d="M123804761 61177380
L123471428 60701190
" />
<path d="M123233333 61177380
L123233333 60177380
L123614285 60177380
L123709523 60225000
L123757142 60272619
L123804761 60367857
L123804761 60510714
L123757142 60605952
L123709523 60653571
L123614285 60701190
L123233333 60701190
" />
<path d="M124090476 60177380
L124423809 61177380
L124757142 60177380
" />
<path d="M125614285 61177380
L125042857 61177380
" />
<path d="M125328571 61177380
L125328571 60177380
L125233333 60320238
L125138095 60415476
L125042857 60463095
" />
</g><text x="139000000.000000" y="11000000.000000"
textLength="2909286.000000" font-size="1333333.000000" lengthAdjust="spacingAndGlyphs"
text-anchor="middle" opacity="0">BT2</text>
<g class="stroked-text"><desc>BT2</desc>
<path d="M138214285 10428571
L138357142 10476190
L138404761 10523809
L138452380 10619047
L138452380 10761904
L138404761 10857142
L138357142 10904761
L138261904 10952380
L137880952 10952380
L137880952 9952380
L138214285 9952380
L138309523 10000000
L138357142 10047619
L138404761 10142857
L138404761 10238095
L138357142 10333333
L138309523 10380952
L138214285 10428571
L137880952 10428571
" />
<path d="M138738095 9952380
L139309523 9952380
" />
<path d="M139023809 10952380
L139023809 9952380
" />
<path d="M139595238 10047619
L139642857 10000000
L139738095 9952380
L139976190 9952380
L140071428 10000000
L140119047 10047619
L140166666 10142857
L140166666 10238095
L140119047 10380952
L139547619 10952380
L140166666 10952380
" />
</g><text x="122810000.000000" y="3630000.000000"
textLength="2147381.000000" font-size="1333333.000000" lengthAdjust="spacingAndGlyphs"
text-anchor="middle" opacity="0">R6</text>
<g class="stroked-text"><desc>R6</desc>
<path d="M122643333 3582380
L122310000 3106190
" />
<path d="M122071904 3582380
L122071904 2582380
L122452857 2582380
L122548095 2630000
L122595714 2677619
L122643333 2772857
L122643333 2915714
L122595714 3010952
L122548095 3058571
L122452857 3106190
L122071904 3106190
" />
<path d="M123500476 2582380
L123310000 2582380
L123214761 2630000
L123167142 2677619
L123071904 2820476
L123024285 3010952
L123024285 3391904
L123071904 3487142
L123119523 3534761
L123214761 3582380
L123405238 3582380
L123500476 3534761
L123548095 3487142
L123595714 3391904
L123595714 3153809
L123548095 3058571
L123500476 3010952
L123405238 2963333
L123214761 2963333
L123119523 3010952
L123071904 3058571
L123024285 3153809
" />
</g><text x="50500000.000000" y="2000000.000000"
textLength="2147381.000000" font-size="1333333.000000" lengthAdjust="spacingAndGlyphs"
text-anchor="middle" opacity="0">C2</text>
<g class="stroked-text"><desc>C2</desc>
<path d="M50333333 1857142
L50285714 1904761
L50142857 1952380
L50047619 1952380
L49904761 1904761
L49809523 1809523
L49761904 1714285
L49714285 1523809
L49714285 1380952
L49761904 1190476
L49809523 1095238
L49904761 1000000
L50047619 952380
L50142857 952380
L50285714 1000000
L50333333 1047619
" />
<path d="M50714285 1047619
L50761904 1000000
L50857142 952380
L51095238 952380
L51190476 1000000
L51238095 1047619
L51285714 1142857
L51285714 1238095
L51238095 1380952
L50666666 1952380
L51285714 1952380
" />
</g><g transform="rotate(-90.000000 174040000.000000 56001500.000000)">
<text x="174040000.000000" y="56501500.000000"
textLength="2147381.000000" font-size="1333333.000000" lengthAdjust="spacingAndGlyphs"
text-anchor="middle" opacity="0">D1</text>
</g>
<g class="stroked-text"><desc>D1</desc>
<path d="M174492380 56739595
L173492380 56739595
L173492380 56501500
L173540000 56358642
L173635238 56263404
L173730476 56215785
L173920952 56168166
L174063809 56168166
L174254285 56215785
L174349523 56263404
L174444761 56358642
L174492380 56501500
L174492380 56739595
" />
<path d="M174492380 55215785
L174492380 55787214
" />
<path d="M174492380 55501500
L173492380 55501500
L173635238 55596738
L173730476 55691976
L173778095 55787214
" />
</g><text x="93025000.000000" y="55405000.000000"
textLength="1909286.000000" font-size="1333333.000000" lengthAdjust="spacingAndGlyphs"
text-anchor="middle" opacity="0">J4</text>
<g class="stroked-text"><desc>J4</desc>
<path d="M92691666 54357380
L92691666 55071666
L92644047 55214523
L92548809 55309761
L92405952 55357380
L92310714 55357380
" />
<path d="M93596428 54690714
L93596428 55357380
" />
<path d="M93358333 54309761
L93120238 55024047
L93739285 55024047
" />
</g><g transform="rotate(-180.000000 60000000.000000 53762000.000000)">
<text x="60000000.000000" y="54262000.000000"
textLength="2290238.000000" font-size="1333333.000000" lengthAdjust="spacingAndGlyphs"
text-anchor="middle" opacity="0">M1</text>
</g>
<g class="stroked-text"><desc>M1</desc>
<path d="M60809523 53309619
L60809523 54309619
L60476190 53595333
L60142857 54309619
L60142857 53309619
" />
<path d="M59142857 53309619
L59714285 53309619
" />
<path d="M59428571 53309619
L59428571 54309619
L59523809 54166761
L59619047 54071523
L59714285 54023904
" />
</g><g transform="rotate(-270.000000 54920000.000000 46904000.000000)">
<text x="54920000.000000" y="47404000.000000"
textLength="3052143.000000" font-size="1333333.000000" lengthAdjust="spacingAndGlyphs"
text-anchor="middle" opacity="0">VCC</text>
</g>
<g class="stroked-text"><desc>VCC</desc>
<path d="M55467619 45570666
L54467619 45904000
L55467619 46237333
" />
<path d="M54562857 47142095
L54515238 47094476
L54467619 46951619
L54467619 46856380
L54515238 46713523
L54610476 46618285
L54705714 46570666
L54896190 46523047
L55039047 46523047
L55229523 46570666
L55324761 46618285
L55420000 46713523
L55467619 46856380
L55467619 46951619
L55420000 47094476
L55372380 47142095
" />
<path d="M54562857 48142095
L54515238 48094476
L54467619 47951619
L54467619 47856380
L54515238 47713523
L54610476 47618285
L54705714 47570666
L54896190 47523047
L55039047 47523047
L55229523 47570666
L55324761 47618285
L55420000 47713523
L55467619 47856380
L55467619 47951619
L55420000 48094476
L55372380 48142095
" />
</g><g transform="rotate(-180.000000 60000000.000000 39792000.000000)">
<text x="60000000.000000" y="40292000.000000"
textLength="5956905.000000" font-size="1333333.000000" lengthAdjust="spacingAndGlyphs"
text-anchor="middle" opacity="0">DS1302</text>
</g>
<g class="stroked-text"><desc>DS1302</desc>
<path d="M62642857 39339619
L62642857 40339619
L62404761 40339619
L62261904 40292000
L62166666 40196761
L62119047 40101523
L62071428 39911047
L62071428 39768190
L62119047 39577714
L62166666 39482476
L62261904 39387238
L62404761 39339619
L62642857 39339619
" />
<path d="M61690476 39387238
L61547619 39339619
L61309523 39339619
L61214285 39387238
L61166666 39434857
L61119047 39530095
L61119047 39625333
L61166666 39720571
L61214285 39768190
L61309523 39815809
L61500000 39863428
L61595238 39911047
L61642857 39958666
L61690476 40053904
L61690476 40149142
L61642857 40244380
L61595238 40292000
L61500000 40339619
L61261904 40339619
L61119047 40292000
" />
<path d="M60166666 39339619
L60738095 39339619
" />
<path d="M60452380 39339619
L60452380 40339619
L60547619 40196761
L60642857 40101523
L60738095 40053904
" />
<path d="M59833333 40339619
L59214285 40339619
L59547619 39958666
L59404761 39958666
L59309523 39911047
L59261904 39863428
L59214285 39768190
L59214285 39530095
L59261904 39434857
L59309523 39387238
L59404761 39339619
L59690476 39339619
L59785714 39387238
L59833333 39434857
" />
<path d="M58595238 40339619
L58500000 40339619
L58404761 40292000
L58357142 40244380
L58309523 40149142
L58261904 39958666
L58261904 39720571
L58309523 39530095
L58357142 39434857
L58404761 39387238
L58500000 39339619
L58595238 39339619
L58690476 39387238
L58738095 39434857
L58785714 39530095
L58833333 39720571
L58833333 39958666
L58785714 40149142
L58738095 40244380
L58690476 40292000
L58595238 40339619
" />
<path d="M57880952 40244380
L57833333 40292000
L57738095 40339619
L57500000 40339619
L57404761 40292000
L57357142 40244380
L57309523 40149142
L57309523 40053904
L57357142 39911047
L57928571 39339619
L57309523 39339619
" />
</g><g transform="rotate(-270.000000 62540000.000000 46904000.000000)">
<text x="62540000.000000" y="47404000.000000"
textLength="2814048.000000" font-size="1333333.000000" lengthAdjust="spacingAndGlyphs"
text-anchor="middle" opacity="0">DAT</text>
</g>
<g class="stroked-text"><desc>DAT</desc>
<path d="M62087619 45832571
L63087619 45832571
L63087619 46070666
L63040000 46213523
L62944761 46308761
L62849523 46356380
L62659047 46404000
L62516190 46404000
L62325714 46356380
L62230476 46308761
L62135238 46213523
L62087619 46070666
L62087619 45832571
" />
<path d="M62373333 46784952
L62373333 47261142
" />
<path d="M62087619 46689714
L63087619 47023047
L62087619 47356380
" />
<path d="M63087619 47546857
L63087619 48118285
" />
<path d="M62087619 47832571
L63087619 47832571
" />
</g><g transform="rotate(-270.000000 57460000.000000 46904000.000000)">
<text x="57460000.000000" y="47404000.000000"
textLength="3242619.000000" font-size="1333333.000000" lengthAdjust="spacingAndGlyphs"
text-anchor="middle" opacity="0">GND</text>
</g>
<g class="stroked-text"><desc>GND</desc>
<path d="M57960000 46142095
L58007619 46046857
L58007619 45904000
L57960000 45761142
L57864761 45665904
L57769523 45618285
L57579047 45570666
L57436190 45570666
L57245714 45618285
L57150476 45665904
L57055238 45761142
L57007619 45904000
L57007619 45999238
L57055238 46142095
L57102857 46189714
L57436190 46189714
L57436190 45999238
" />
<path d="M57007619 46618285
L58007619 46618285
L57007619 47189714
L58007619 47189714
" />
<path d="M57007619 47665904
L58007619 47665904
L58007619 47904000
L57960000 48046857
L57864761 48142095
L57769523 48189714
L57579047 48237333
L57436190 48237333
L57245714 48189714
L57150476 48142095
L57055238 48046857
L57007619 47904000
L57007619 47665904
" />
</g><g transform="rotate(-270.000000 65080000.000000 46904000.000000)">
<text x="65080000.000000" y="47404000.000000"
textLength="2909286.000000" font-size="1333333.000000" lengthAdjust="spacingAndGlyphs"
text-anchor="middle" opacity="0">RST</text>
</g>
<g class="stroked-text"><desc>RST</desc>
<path d="M64627619 46356380
L65103809 46023047
" />
<path d="M64627619 45784952
L65627619 45784952
L65627619 46165904
L65580000 46261142
L65532380 46308761
L65437142 46356380
L65294285 46356380
L65199047 46308761
L65151428 46261142
L65103809 46165904
L65103809 45784952
" />
<path d="M64675238 46737333
L64627619 46880190
L64627619 47118285
L64675238 47213523
L64722857 47261142
L64818095 47308761
L64913333 47308761
L65008571 47261142
L65056190 47213523
L65103809 47118285
L65151428 46927809
L65199047 46832571
L65246666 46784952
L65341904 46737333
L65437142 46737333
L65532380 46784952
L65580000 46832571
L65627619 46927809
L65627619 47165904
L65580000 47308761
" />
<path d="M65627619 47594476
L65627619 48165904
" />
<path d="M64627619 47880190
L65627619 47880190
" />
</g><g transform="rotate(-270.000000 60000000.000000 46904000.000000)">
<text x="60000000.000000" y="47404000.000000"
textLength="3004524.000000" font-size="1333333.000000" lengthAdjust="spacingAndGlyphs"
text-anchor="middle" opacity="0">CLK</text>
</g>
<g class="stroked-text"><desc>CLK</desc>
<path d="M59642857 46308761
L59595238 46261142
L59547619 46118285
L59547619 46023047
L59595238 45880190
L59690476 45784952
L59785714 45737333
L59976190 45689714
L60119047 45689714
L60309523 45737333
L60404761 45784952
L60500000 45880190
L60547619 46023047
L60547619 46118285
L60500000 46261142
L60452380 46308761
" />
<path d="M59547619 47213523
L59547619 46737333
L60547619 46737333
" />
<path d="M59547619 47546857
L60547619 47546857
" />
<path d="M59547619 48118285
L60119047 47689714
" />
<path d="M60547619 48118285
L59976190 47546857
" />
</g><text x="40640000.000000" y="150000.000000"
textLength="2195000.000000" font-size="1333333.000000" lengthAdjust="spacingAndGlyphs"
text-anchor="middle" opacity="0">U1</text>
<g class="stroked-text"><desc>U1</desc>
<path d="M39878095 -897619
L39878095 -88095
L39925714 7142
L39973333 54761
L40068571 102380
L40259047 102380
L40354285 54761
L40401904 7142
L40449523 -88095
L40449523 -897619
" />
<path d="M41449523 102380
L40878095 102380
" />
<path d="M41163809 102380
L41163809 -897619
L41068571 -754761
L40973333 -659523
L40878095 -611904
" />
</g><text x="194025000.000000" y="55405000.000000"
textLength="1909286.000000" font-size="1333333.000000" lengthAdjust="spacingAndGlyphs"
text-anchor="middle" opacity="0">J5</text>
<g class="stroked-text"><desc>J5</desc>
<path d="M193691666 54357380
L193691666 55071666
L193644047 55214523
L193548809 55309761
L193405952 55357380
L193310714 55357380
" />
<path d="M194644047 54357380
L194167857 54357380
L194120238 54833571
L194167857 54785952
L194263095 54738333
L194501190 54738333
L194596428 54785952
L194644047 54833571
L194691666 54928809
L194691666 55166904
L194644047 55262142
L194596428 55309761
L194501190 55357380
L194263095 55357380
L194167857 55309761
L194120238 55262142
" />
</g><text x="92325000.000000" y="18020000.000000"
textLength="1909286.000000" font-size="1333333.000000" lengthAdjust="spacingAndGlyphs"
text-anchor="middle" opacity="0">J7</text>
<g class="stroked-text"><desc>J7</desc>
<path d="M91991666 16972380
L91991666 17686666
L91944047 17829523
L91848809 17924761
L91705952 17972380
L91610714 17972380
" />
<path d="M92372619 16972380
L93039285 16972380
L92610714 17972380
" />
</g><g transform="rotate(-90.000000 23435000.000000 10140000.000000)">
<text x="23435000.000000" y="10640000.000000"
textLength="2147381.000000" font-size="1333333.000000" lengthAdjust="spacingAndGlyphs"
text-anchor="middle" opacity="0">C1</text>
</g>
<g class="stroked-text"><desc>C1</desc>
<path d="M23792142 10306666
L23839761 10354285
L23887380 10497142
L23887380 10592380
L23839761 10735238
L23744523 10830476
L23649285 10878095
L23458809 10925714
L23315952 10925714
L23125476 10878095
L23030238 10830476
L22935000 10735238
L22887380 10592380
L22887380 10497142
L22935000 10354285
L22982619 10306666
" />
<path d="M23887380 9354285
L23887380 9925714
" />
<path d="M23887380 9640000
L22887380 9640000
L23030238 9735238
L23125476 9830476
L23173095 9925714
" />
</g><text x="165500000.000000" y="49500000.000000"
textLength="2909286.000000" font-size="1333333.000000" lengthAdjust="spacingAndGlyphs"
text-anchor="middle" opacity="0">BT5</text>
<g class="stroked-text"><desc>BT5</desc>
<path d="M164714285 48928571
L164857142 48976190
L164904761 49023809
L164952380 49119047
L164952380 49261904
L164904761 49357142
L164857142 49404761
L164761904 49452380
L164380952 49452380
L164380952 48452380
L164714285 48452380
L164809523 48500000
L164857142 48547619
L164904761 48642857
L164904761 48738095
L164857142 48833333
L164809523 48880952
L164714285 48928571
L164380952 48928571
" />
<path d="M165238095 48452380
L165809523 48452380
" />
<path d="M165523809 49452380
L165523809 48452380
" />
<path d="M166619047 48452380
L166142857 48452380
L166095238 48928571
L166142857 48880952
L166238095 48833333
L166476190 48833333
L166571428 48880952
L166619047 48928571
L166666666 49023809
L166666666 49261904
L166619047 49357142
L166571428 49404761
L166476190 49452380
L166238095 49452380
L166142857 49404761
L166095238 49357142
" />
</g><text x="147910000.000000" y="15000000.000000"
textLength="3099762.000000" font-size="1333333.000000" lengthAdjust="spacingAndGlyphs"
text-anchor="middle" opacity="0">DS1</text>
<g class="stroked-text"><desc>DS1</desc>
<path d="M146695714 14952380
L146695714 13952380
L146933809 13952380
L147076666 14000000
L147171904 14095238
L147219523 14190476
L147267142 14380952
L147267142 14523809
L147219523 14714285
L147171904 14809523
L147076666 14904761
L146933809 14952380
L146695714 14952380
" />
<path d="M147648095 14904761
L147790952 14952380
L148029047 14952380
L148124285 14904761
L148171904 14857142
L148219523 14761904
L148219523 14666666
L148171904 14571428
L148124285 14523809
L148029047 14476190
L147838571 14428571
L147743333 14380952
L147695714 14333333
L147648095 14238095
L147648095 14142857
L147695714 14047619
L147743333 14000000
L147838571 13952380
L148076666 13952380
L148219523 14000000
" />
<path d="M149171904 14952380
L148600476 14952380
" />
<path d="M148886190 14952380
L148886190 13952380
L148790952 14095238
L148695714 14190476
L148600476 14238095
" />
</g><g transform="rotate(-90.000000 123985767.000000 55000000.000000)">
<text x="123985767.000000" y="55500000.000000"
textLength="2147381.000000" font-size="1333333.000000" lengthAdjust="spacingAndGlyphs"
text-anchor="start" opacity="0">RS</text>
</g>
<g class="stroked-text"><desc>RS</desc>
<path d="M124438147 54092976
L123961957 54426309
" />
<path d="M124438147 54664404
L123438147 54664404
L123438147 54283452
L123485767 54188214
L123533386 54140595
L123628624 54092976
L123771481 54092976
L123866719 54140595
L123914338 54188214
L123961957 54283452
L123961957 54664404
" />
<path d="M124390528 53712023
L124438147 53569166
L124438147 53331071
L124390528 53235833
L124342909 53188214
L124247671 53140595
L124152433 53140595
L124057195 53188214
L124009576 53235833
L123961957 53331071
L123914338 53521547
L123866719 53616785
L123819100 53664404
L123723862 53712023
L123628624 53712023
L123533386 53664404
L123485767 53616785
L123438147 53521547
L123438147 53283452
L123485767 53140595
" />
</g><g transform="rotate(-90.000000 116412854.000000 55148000.000000)">
<text x="116412854.000000" y="55648000.000000"
textLength="3242619.000000" font-size="1333333.000000" lengthAdjust="spacingAndGlyphs"
text-anchor="start" opacity="0">GND</text>
</g>
<g class="stroked-text"><desc>GND</desc>
<path d="M115912854 54288595
L115865234 54383833
L115865234 54526690
L115912854 54669547
L116008092 54764785
L116103330 54812404
L116293806 54860023
L116436663 54860023
L116627139 54812404
L116722377 54764785
L116817615 54669547
L116865234 54526690
L116865234 54431452
L116817615 54288595
L116769996 54240976
L116436663 54240976
L116436663 54431452
" />
<path d="M116865234 53812404
L115865234 53812404
L116865234 53240976
L115865234 53240976
" />
<path d="M116865234 52764785
L115865234 52764785
L115865234 52526690
L115912854 52383833
L116008092 52288595
L116103330 52240976
L116293806 52193357
L116436663 52193357
L116627139 52240976
L116722377 52288595
L116817615 52383833
L116865234 52526690
L116865234 52764785
" />
</g><g transform="rotate(-90.000000 154512854.000000 54894000.000000)">
<text x="154512854.000000" y="55394000.000000"
textLength="4147381.000000" font-size="1333333.000000" lengthAdjust="spacingAndGlyphs"
text-anchor="start" opacity="0">LED-</text>
</g>
<g class="stroked-text"><desc>LED-</desc>
<path d="M154965234 54082214
L154965234 54558404
L153965234 54558404
" />
<path d="M154441425 53748880
L154441425 53415547
" />
<path d="M154965234 53272690
L154965234 53748880
L153965234 53748880
L153965234 53272690
" />
<path d="M154965234 52844119
L153965234 52844119
L153965234 52606023
L154012854 52463166
L154108092 52367928
L154203330 52320309
L154393806 52272690
L154536663 52272690
L154727139 52320309
L154822377 52367928
L154917615 52463166
L154965234 52606023
L154965234 52844119
" />
<path d="M154584282 51844119
L154584282 51082214
" />
</g><g transform="rotate(-90.000000 151718854.000000 54894000.000000)">
<text x="151718854.000000" y="55394000.000000"
textLength="4147381.000000" font-size="1333333.000000" lengthAdjust="spacingAndGlyphs"
text-anchor="start" opacity="0">LED+</text>
</g>
<g class="stroked-text"><desc>LED+</desc>
<path d="M152171234 54082214
L152171234 54558404
L151171234 54558404
" />
<path d="M151647425 53748880
L151647425 53415547
" />
<path d="M152171234 53272690
L152171234 53748880
L151171234 53748880
L151171234 53272690
" />
<path d="M152171234 52844119
L151171234 52844119
L151171234 52606023
L151218854 52463166
L151314092 52367928
L151409330 52320309
L151599806 52272690
L151742663 52272690
L151933139 52320309
L152028377 52367928
L152123615 52463166
L152171234 52606023
L152171234 52844119
" />
<path d="M151790282 51844119
L151790282 51082214
" />
<path d="M152171234 51463166
L151409330 51463166
" />
</g><g transform="rotate(-90.000000 134192854.000000 54894000.000000)">
<text x="134192854.000000" y="55394000.000000"
textLength="3147381.000000" font-size="1333333.000000" lengthAdjust="spacingAndGlyphs"
text-anchor="start" opacity="0">DB1</text>
</g>
<g class="stroked-text"><desc>DB1</desc>
<path d="M134645234 54558404
L133645234 54558404
L133645234 54320309
L133692854 54177452
L133788092 54082214
L133883330 54034595
L134073806 53986976
L134216663 53986976
L134407139 54034595
L134502377 54082214
L134597615 54177452
L134645234 54320309
L134645234 54558404
" />
<path d="M134121425 53225071
L134169044 53082214
L134216663 53034595
L134311901 52986976
L134454758 52986976
L134549996 53034595
L134597615 53082214
L134645234 53177452
L134645234 53558404
L133645234 53558404
L133645234 53225071
L133692854 53129833
L133740473 53082214
L133835711 53034595
L133930949 53034595
L134026187 53082214
L134073806 53129833
L134121425 53225071
L134121425 53558404
" />
<path d="M134645234 52034595
L134645234 52606023
" />
<path d="M134645234 52320309
L133645234 52320309
L133788092 52415547
L133883330 52510785
L133930949 52606023
" />
</g><g transform="rotate(-90.000000 144352854.000000 54894000.000000)">
<text x="144352854.000000" y="55394000.000000"
textLength="3147381.000000" font-size="1333333.000000" lengthAdjust="spacingAndGlyphs"
text-anchor="start" opacity="0">DB5</text>
</g>
<g class="stroked-text"><desc>DB5</desc>
<path d="M144805234 54558404
L143805234 54558404
L143805234 54320309
L143852854 54177452
L143948092 54082214
L144043330 54034595
L144233806 53986976
L144376663 53986976
L144567139 54034595
L144662377 54082214
L144757615 54177452
L144805234 54320309
L144805234 54558404
" />
<path d="M144281425 53225071
L144329044 53082214
L144376663 53034595
L144471901 52986976
L144614758 52986976
L144709996 53034595
L144757615 53082214
L144805234 53177452
L144805234 53558404
L143805234 53558404
L143805234 53225071
L143852854 53129833
L143900473 53082214
L143995711 53034595
L144090949 53034595
L144186187 53082214
L144233806 53129833
L144281425 53225071
L144281425 53558404
" />
<path d="M143805234 52082214
L143805234 52558404
L144281425 52606023
L144233806 52558404
L144186187 52463166
L144186187 52225071
L144233806 52129833
L144281425 52082214
L144376663 52034595
L144614758 52034595
L144709996 52082214
L144757615 52129833
L144805234 52225071
L144805234 52463166
L144757615 52558404
L144709996 52606023
" />
</g><g transform="rotate(-90.000000 136732854.000000 54894000.000000)">
<text x="136732854.000000" y="55394000.000000"
textLength="3147381.000000" font-size="1333333.000000" lengthAdjust="spacingAndGlyphs"
text-anchor="start" opacity="0">DB2</text>
</g>
<g class="stroked-text"><desc>DB2</desc>
<path d="M137185234 54558404
L136185234 54558404
L136185234 54320309
L136232854 54177452
L136328092 54082214
L136423330 54034595
L136613806 53986976
L136756663 53986976
L136947139 54034595
L137042377 54082214
L137137615 54177452
L137185234 54320309
L137185234 54558404
" />
<path d="M136661425 53225071
L136709044 53082214
L136756663 53034595
L136851901 52986976
L136994758 52986976
L137089996 53034595
L137137615 53082214
L137185234 53177452
L137185234 53558404
L136185234 53558404
L136185234 53225071
L136232854 53129833
L136280473 53082214
L136375711 53034595
L136470949 53034595
L136566187 53082214
L136613806 53129833
L136661425 53225071
L136661425 53558404
" />
<path d="M136280473 52606023
L136232854 52558404
L136185234 52463166
L136185234 52225071
L136232854 52129833
L136280473 52082214
L136375711 52034595
L136470949 52034595
L136613806 52082214
L137185234 52653642
L137185234 52034595
" />
</g><g transform="rotate(-90.000000 141812854.000000 54894000.000000)">
<text x="141812854.000000" y="55394000.000000"
textLength="3147381.000000" font-size="1333333.000000" lengthAdjust="spacingAndGlyphs"
text-anchor="start" opacity="0">DB4</text>
</g>
<g class="stroked-text"><desc>DB4</desc>
<path d="M142265234 54558404
L141265234 54558404
L141265234 54320309
L141312854 54177452
L141408092 54082214
L141503330 54034595
L141693806 53986976
L141836663 53986976
L142027139 54034595
L142122377 54082214
L142217615 54177452
L142265234 54320309
L142265234 54558404
" />
<path d="M141741425 53225071
L141789044 53082214
L141836663 53034595
L141931901 52986976
L142074758 52986976
L142169996 53034595
L142217615 53082214
L142265234 53177452
L142265234 53558404
L141265234 53558404
L141265234 53225071
L141312854 53129833
L141360473 53082214
L141455711 53034595
L141550949 53034595
L141646187 53082214
L141693806 53129833
L141741425 53225071
L141741425 53558404
" />
<path d="M141598568 52129833
L142265234 52129833
" />
<path d="M141217615 52367928
L141931901 52606023
L141931901 51986976
" />
</g><g transform="rotate(-90.000000 118952854.000000 54894000.000000)">
<text x="118952854.000000" y="55394000.000000"
textLength="3052143.000000" font-size="1333333.000000" lengthAdjust="spacingAndGlyphs"
text-anchor="start" opacity="0">VCC</text>
</g>
<g class="stroked-text"><desc>VCC</desc>
<path d="M118405234 54701261
L119405234 54367928
L118405234 54034595
" />
<path d="M119309996 53129833
L119357615 53177452
L119405234 53320309
L119405234 53415547
L119357615 53558404
L119262377 53653642
L119167139 53701261
L118976663 53748880
L118833806 53748880
L118643330 53701261
L118548092 53653642
L118452854 53558404
L118405234 53415547
L118405234 53320309
L118452854 53177452
L118500473 53129833
" />
<path d="M119309996 52129833
L119357615 52177452
L119405234 52320309
L119405234 52415547
L119357615 52558404
L119262377 52653642
L119167139 52701261
L118976663 52748880
L118833806 52748880
L118643330 52701261
L118548092 52653642
L118452854 52558404
L118405234 52415547
L118405234 52320309
L118452854 52177452
L118500473 52129833
" />
</g><g transform="rotate(-90.000000 121448854.000000 54894000.000000)">
<text x="121448854.000000" y="55394000.000000"
textLength="2004524.000000" font-size="1333333.000000" lengthAdjust="spacingAndGlyphs"
text-anchor="start" opacity="0">V0</text>
</g>
<g class="stroked-text"><desc>V0</desc>
<path d="M120901234 54701261
L121901234 54367928
L120901234 54034595
" />
<path d="M120901234 53510785
L120901234 53415547
L120948854 53320309
L120996473 53272690
L121091711 53225071
L121282187 53177452
L121520282 53177452
L121710758 53225071
L121805996 53272690
L121853615 53320309
L121901234 53415547
L121901234 53510785
L121853615 53606023
L121805996 53653642
L121710758 53701261
L121520282 53748880
L121282187 53748880
L121091711 53701261
L120996473 53653642
L120948854 53606023
L120901234 53510785
" />
</g><g transform="rotate(-90.000000 149388854.000000 54894000.000000)">
<text x="149388854.000000" y="55394000.000000"
textLength="3147381.000000" font-size="1333333.000000" lengthAdjust="spacingAndGlyphs"
text-anchor="start" opacity="0">DB7</text>
</g>
<g class="stroked-text"><desc>DB7</desc>
<path d="M149841234 54558404
L148841234 54558404
L148841234 54320309
L148888854 54177452
L148984092 54082214
L149079330 54034595
L149269806 53986976
L149412663 53986976
L149603139 54034595
L149698377 54082214
L149793615 54177452
L149841234 54320309
L149841234 54558404
" />
<path d="M149317425 53225071
L149365044 53082214
L149412663 53034595
L149507901 52986976
L149650758 52986976
L149745996 53034595
L149793615 53082214
L149841234 53177452
L149841234 53558404
L148841234 53558404
L148841234 53225071
L148888854 53129833
L148936473 53082214
L149031711 53034595
L149126949 53034595
L149222187 53082214
L149269806 53129833
L149317425 53225071
L149317425 53558404
" />
<path d="M148841234 52653642
L148841234 51986976
L149841234 52415547
" />
</g><g transform="rotate(-90.000000 131608854.000000 54894000.000000)">
<text x="131608854.000000" y="55394000.000000"
textLength="3147381.000000" font-size="1333333.000000" lengthAdjust="spacingAndGlyphs"
text-anchor="start" opacity="0">DB0</text>
</g>
<g class="stroked-text"><desc>DB0</desc>
<path d="M132061234 54558404
L131061234 54558404
L131061234 54320309
L131108854 54177452
L131204092 54082214
L131299330 54034595
L131489806 53986976
L131632663 53986976
L131823139 54034595
L131918377 54082214
L132013615 54177452
L132061234 54320309
L132061234 54558404
" />
<path d="M131537425 53225071
L131585044 53082214
L131632663 53034595
L131727901 52986976
L131870758 52986976
L131965996 53034595
L132013615 53082214
L132061234 53177452
L132061234 53558404
L131061234 53558404
L131061234 53225071
L131108854 53129833
L131156473 53082214
L131251711 53034595
L131346949 53034595
L131442187 53082214
L131489806 53129833
L131537425 53225071
L131537425 53558404
" />
<path d="M131061234 52367928
L131061234 52272690
L131108854 52177452
L131156473 52129833
L131251711 52082214
L131442187 52034595
L131680282 52034595
L131870758 52082214
L131965996 52129833
L132013615 52177452
L132061234 52272690
L132061234 52367928
L132013615 52463166
L131965996 52510785
L131870758 52558404
L131680282 52606023
L131442187 52606023
L131251711 52558404
L131156473 52510785
L131108854 52463166
L131061234 52367928
" />
</g><g transform="rotate(-90.000000 139272854.000000 54894000.000000)">
<text x="139272854.000000" y="55394000.000000"
textLength="3147381.000000" font-size="1333333.000000" lengthAdjust="spacingAndGlyphs"
text-anchor="start" opacity="0">DB3</text>
</g>
<g class="stroked-text"><desc>DB3</desc>
<path d="M139725234 54558404
L138725234 54558404
L138725234 54320309
L138772854 54177452
L138868092 54082214
L138963330 54034595
L139153806 53986976
L139296663 53986976
L139487139 54034595
L139582377 54082214
L139677615 54177452
L139725234 54320309
L139725234 54558404
" />
<path d="M139201425 53225071
L139249044 53082214
L139296663 53034595
L139391901 52986976
L139534758 52986976
L139629996 53034595
L139677615 53082214
L139725234 53177452
L139725234 53558404
L138725234 53558404
L138725234 53225071
L138772854 53129833
L138820473 53082214
L138915711 53034595
L139010949 53034595
L139106187 53082214
L139153806 53129833
L139201425 53225071
L139201425 53558404
" />
<path d="M138725234 52653642
L138725234 52034595
L139106187 52367928
L139106187 52225071
L139153806 52129833
L139201425 52082214
L139296663 52034595
L139534758 52034595
L139629996 52082214
L139677615 52129833
L139725234 52225071
L139725234 52510785
L139677615 52606023
L139629996 52653642
" />
</g><g transform="rotate(-90.000000 129048210.000000 55000000.000000)">
<text x="129048210.000000" y="55500000.000000"
textLength="1099762.000000" font-size="1333333.000000" lengthAdjust="spacingAndGlyphs"
text-anchor="start" opacity="0">E</text>
</g>
<g class="stroked-text"><desc>E</desc>
<path d="M128976781 54664404
L128976781 54331071
" />
<path d="M129500590 54188214
L129500590 54664404
L128500590 54664404
L128500590 54188214
" />
</g><g transform="rotate(-90.000000 126500000.000000 55000000.000000)">
<text x="126500000.000000" y="55500000.000000"
textLength="3385476.000000" font-size="1333333.000000" lengthAdjust="spacingAndGlyphs"
text-anchor="start" opacity="0">R/W</text>
</g>
<g class="stroked-text"><desc>R/W</desc>
<path d="M126952380 54092976
L126476190 54426309
" />
<path d="M126952380 54664404
L125952380 54664404
L125952380 54283452
L126000000 54188214
L126047619 54140595
L126142857 54092976
L126285714 54092976
L126380952 54140595
L126428571 54188214
L126476190 54283452
L126476190 54664404
" />
<path d="M125904761 52950119
L127190476 53807261
" />
<path d="M125952380 52712023
L126952380 52473928
L126238095 52283452
L126952380 52092976
L125952380 51854880
" />
</g><g transform="rotate(-90.000000 146892854.000000 54894000.000000)">
<text x="146892854.000000" y="55394000.000000"
textLength="3147381.000000" font-size="1333333.000000" lengthAdjust="spacingAndGlyphs"
text-anchor="start" opacity="0">DB6</text>
</g>
<g class="stroked-text"><desc>DB6</desc>
<path d="M147345234 54558404
L146345234 54558404
L146345234 54320309
L146392854 54177452
L146488092 54082214
L146583330 54034595
L146773806 53986976
L146916663 53986976
L147107139 54034595
L147202377 54082214
L147297615 54177452
L147345234 54320309
L147345234 54558404
" />
<path d="M146821425 53225071
L146869044 53082214
L146916663 53034595
L147011901 52986976
L147154758 52986976
L147249996 53034595
L147297615 53082214
L147345234 53177452
L147345234 53558404
L146345234 53558404
L146345234 53225071
L146392854 53129833
L146440473 53082214
L146535711 53034595
L146630949 53034595
L146726187 53082214
L146773806 53129833
L146821425 53225071
L146821425 53558404
" />
<path d="M146345234 52129833
L146345234 52320309
L146392854 52415547
L146440473 52463166
L146583330 52558404
L146773806 52606023
L147154758 52606023
L147249996 52558404
L147297615 52510785
L147345234 52415547
L147345234 52225071
L147297615 52129833
L147249996 52082214
L147154758 52034595
L146916663 52034595
L146821425 52082214
L146773806 52129833
L146726187 52225071
L146726187 52415547
L146773806 52510785
L146821425 52558404
L146916663 52606023
" />
</g><text x="175000000.000000" y="11000000.000000"
textLength="2909286.000000" font-size="1333333.000000" lengthAdjust="spacingAndGlyphs"
text-anchor="middle" opacity="0">BT4</text>
<g class="stroked-text"><desc>BT4</desc>
<path d="M174214285 10428571
L174357142 10476190
L174404761 10523809
L174452380 10619047
L174452380 10761904
L174404761 10857142
L174357142 10904761
L174261904 10952380
L173880952 10952380
L173880952 9952380
L174214285 9952380
L174309523 10000000
L174357142 10047619
L174404761 10142857
L174404761 10238095
L174357142 10333333
L174309523 10380952
L174214285 10428571
L173880952 10428571
" />
<path d="M174738095 9952380
L175309523 9952380
" />
<path d="M175023809 10952380
L175023809 9952380
" />
<path d="M176071428 10285714
L176071428 10952380
" />
<path d="M175833333 9904761
L175595238 10619047
L176214285 10619047
" />
</g><text x="111000000.000000" y="3630000.000000"
textLength="2147381.000000" font-size="1333333.000000" lengthAdjust="spacingAndGlyphs"
text-anchor="middle" opacity="0">R5</text>
<g class="stroked-text"><desc>R5</desc>
<path d="M110833333 3582380
L110500000 3106190
" />
<path d="M110261904 3582380
L110261904 2582380
L110642857 2582380
L110738095 2630000
L110785714 2677619
L110833333 2772857
L110833333 2915714
L110785714 3010952
L110738095 3058571
L110642857 3106190
L110261904 3106190
" />
<path d="M111738095 2582380
L111261904 2582380
L111214285 3058571
L111261904 3010952
L111357142 2963333
L111595238 2963333
L111690476 3010952
L111738095 3058571
L111785714 3153809
L111785714 3391904
L111738095 3487142
L111690476 3534761
L111595238 3582380
L111357142 3582380
L111261904 3534761
L111214285 3487142
" />
</g><text x="93025000.000000" y="33730000.000000"
textLength="1909286.000000" font-size="1333333.000000" lengthAdjust="spacingAndGlyphs"
text-anchor="middle" opacity="0">J2</text>
<g class="stroked-text"><desc>J2</desc>
<path d="M92691666 32682380
L92691666 33396666
L92644047 33539523
L92548809 33634761
L92405952 33682380
L92310714 33682380
" />
<path d="M93120238 32777619
L93167857 32730000
L93263095 32682380
L93501190 32682380
L93596428 32730000
L93644047 32777619
L93691666 32872857
L93691666 32968095
L93644047 33110952
L93072619 33682380
L93691666 33682380
" />
</g><g transform="rotate(-90.000000 43320000.000000 40010000.000000)">
<text x="43320000.000000" y="40510000.000000"
textLength="2004524.000000" font-size="1333333.000000" lengthAdjust="spacingAndGlyphs"
text-anchor="middle" opacity="0">A1</text>
</g>
<g class="stroked-text"><desc>A1</desc>
<path d="M43486666 40724285
L43486666 40248095
" />
<path d="M43772380 40819523
L42772380 40486190
L43772380 40152857
" />
<path d="M43772380 39295714
L43772380 39867142
" />
<path d="M43772380 39581428
L42772380 39581428
L42915238 39676666
L43010476 39771904
L43058095 39867142
" />
</g><g transform="rotate(-270.000000 2680000.000000 40010000.000000)">
<text x="2680000.000000" y="40510000.000000"
textLength="3195000.000000" font-size="1333333.000000" lengthAdjust="spacingAndGlyphs"
text-anchor="middle" opacity="0">USB</text>
</g>
<g class="stroked-text"><desc>USB</desc>
<path d="M3227619 38748095
L2418095 38748095
L2322857 38795714
L2275238 38843333
L2227619 38938571
L2227619 39129047
L2275238 39224285
L2322857 39271904
L2418095 39319523
L3227619 39319523
" />
<path d="M2275238 39748095
L2227619 39890952
L2227619 40129047
L2275238 40224285
L2322857 40271904
L2418095 40319523
L2513333 40319523
L2608571 40271904
L2656190 40224285
L2703809 40129047
L2751428 39938571
L2799047 39843333
L2846666 39795714
L2941904 39748095
L3037142 39748095
L3132380 39795714
L3180000 39843333
L3227619 39938571
L3227619 40176666
L3180000 40319523
" />
<path d="M2751428 41081428
L2703809 41224285
L2656190 41271904
L2560952 41319523
L2418095 41319523
L2322857 41271904
L2275238 41224285
L2227619 41129047
L2227619 40748095
L3227619 40748095
L3227619 41081428
L3180000 41176666
L3132380 41224285
L3037142 41271904
L2941904 41271904
L2846666 41224285
L2799047 41176666
L2751428 41081428
L2751428 40748095
" />
</g><g transform="rotate(-90.000000 73800000.000000 23500000.000000)">
<text x="73800000.000000" y="24000000.000000"
textLength="3099762.000000" font-size="1333333.000000" lengthAdjust="spacingAndGlyphs"
text-anchor="middle" opacity="0">BZ1</text>
</g>
<g class="stroked-text"><desc>BZ1</desc>
<path d="M73728571 24380952
L73776190 24238095
L73823809 24190476
L73919047 24142857
L74061904 24142857
L74157142 24190476
L74204761 24238095
L74252380 24333333
L74252380 24714285
L73252380 24714285
L73252380 24380952
L73300000 24285714
L73347619 24238095
L73442857 24190476
L73538095 24190476
L73633333 24238095
L73680952 24285714
L73728571 24380952
L73728571 24714285
" />
<path d="M73252380 23809523
L73252380 23142857
L74252380 23809523
L74252380 23142857
" />
<path d="M74252380 22238095
L74252380 22809523
" />
<path d="M74252380 22523809
L73252380 22523809
L73395238 22619047
L73490476 22714285
L73538095 22809523
" />
</g><g transform="rotate(-90.000000 78460000.000000 27310000.000000)">
<text x="78460000.000000" y="27810000.000000"
textLength="1433095.000000" font-size="1333333.000000" lengthAdjust="spacingAndGlyphs"
text-anchor="middle" opacity="0">+</text>
</g>
<g class="stroked-text"><desc>+</desc>
<path d="M78531428 27690952
L78531428 26929047
" />
<path d="M78912380 27310000
L78150476 27310000
" />
</g><text x="157000000.000000" y="11000000.000000"
textLength="2909286.000000" font-size="1333333.000000" lengthAdjust="spacingAndGlyphs"
text-anchor="middle" opacity="0">BT3</text>
<g class="stroked-text"><desc>BT3</desc>
<path d="M156214285 10428571
L156357142 10476190
L156404761 10523809
L156452380 10619047
L156452380 10761904
L156404761 10857142
L156357142 10904761
L156261904 10952380
L155880952 10952380
L155880952 9952380
L156214285 9952380
L156309523 10000000
L156357142 10047619
L156404761 10142857
L156404761 10238095
L156357142 10333333
L156309523 10380952
L156214285 10428571
L155880952 10428571
" />
<path d="M156738095 9952380
L157309523 9952380
" />
<path d="M157023809 10952380
L157023809 9952380
" />
<path d="M157547619 9952380
L158166666 9952380
L157833333 10333333
L157976190 10333333
L158071428 10380952
L158119047 10428571
L158166666 10523809
L158166666 10761904
L158119047 10857142
L158071428 10904761
L157976190 10952380
L157690476 10952380
L157595238 10904761
L157547619 10857142
" />
</g><text x="29210000.000000" y="11295000.000000"
textLength="1909286.000000" font-size="1333333.000000" lengthAdjust="spacingAndGlyphs"
text-anchor="middle" opacity="0">J8</text>
<g class="stroked-text"><desc>J8</desc>
<path d="M28876666 10247380
L28876666 10961666
L28829047 11104523
L28733809 11199761
L28590952 11247380
L28495714 11247380
" />
<path d="M29495714 10675952
L29400476 10628333
L29352857 10580714
L29305238 10485476
L29305238 10437857
L29352857 10342619
L29400476 10295000
L29495714 10247380
L29686190 10247380
L29781428 10295000
L29829047 10342619
L29876666 10437857
L29876666 10485476
L29829047 10580714
L29781428 10628333
L29686190 10675952
L29495714 10675952
L29400476 10723571
L29352857 10771190
L29305238 10866428
L29305238 11056904
L29352857 11152142
L29400476 11199761
L29495714 11247380
L29686190 11247380
L29781428 11199761
L29829047 11152142
L29876666 11056904
L29876666 10866428
L29829047 10771190
L29781428 10723571
L29686190 10675952
" />
</g><text x="24000000.000000" y="6970000.000000"
textLength="2147381.000000" font-size="1333333.000000" lengthAdjust="spacingAndGlyphs"
text-anchor="middle" opacity="0">D2</text>
<g class="stroked-text"><desc>D2</desc>
<path d="M23261904 6922380
L23261904 5922380
L23500000 5922380
L23642857 5970000
L23738095 6065238
L23785714 6160476
L23833333 6350952
L23833333 6493809
L23785714 6684285
L23738095 6779523
L23642857 6874761
L23500000 6922380
L23261904 6922380
" />
<path d="M24214285 6017619
L24261904 5970000
L24357142 5922380
L24595238 5922380
L24690476 5970000
L24738095 6017619
L24785714 6112857
L24785714 6208095
L24738095 6350952
L24166666 6922380
L24785714 6922380
" />
</g><text x="29080000.000000" y="6600000.000000"
textLength="1195000.000000" font-size="1333333.000000" lengthAdjust="spacingAndGlyphs"
text-anchor="middle" opacity="0">K</text>
<g class="stroked-text"><desc>K</desc>
<path d="M28818095 6552380
L28818095 5552380
" />
<path d="M29389523 6552380
L28960952 5980952
" />
<path d="M29389523 5552380
L28818095 6123809
" />
</g><g transform="rotate(-90.000000 15800000.000000 7620000.000000)">
<text x="15800000.000000" y="8120000.000000"
textLength="1909286.000000" font-size="1333333.000000" lengthAdjust="spacingAndGlyphs"
text-anchor="middle" opacity="0">J1</text>
</g>
<g class="stroked-text"><desc>J1</desc>
<path d="M15252380 7953333
L15966666 7953333
L16109523 8000952
L16204761 8096190
L16252380 8239047
L16252380 8334285
" />
<path d="M16252380 6953333
L16252380 7524761
" />
<path d="M16252380 7239047
L15252380 7239047
L15395238 7334285
L15490476 7429523
L15538095 7524761
" />
</g></g>
<g style="fill:#000000; fill-opacity:0.0; 
stroke:#000000; stroke-width:120000.000000; stroke-opacity:1; 
stroke-linecap:round; stroke-linejoin:round;">
<path d="M78800000 33100000
L78800000 36410000
" />
<path d="M80170000 36410000
L77430000 36410000
" />
<path d="M77430000 42950000
L80170000 42950000
" />
<path d="M80170000 42950000
L80170000 36410000
" />
<path d="M78800000 46260000
L78800000 42950000
" />
<path d="M77430000 36410000
L77430000 42950000
" />
<path d="M192695000 31945000
L195355000 31945000
" />
<path d="M195355000 29345000
L195355000 30675000
" />
<path d="M192695000 31945000
L192695000 44705000
" />
<path d="M195355000 31945000
L195355000 44705000
" />
<path d="M192695000 44705000
L195355000 44705000
" />
<path d="M194025000 29345000
L195355000 29345000
" />
<path d="M8870000 14990000
L17890000 14990000
" />
</g>
<g style="fill:#000000; fill-opacity:0.0; 
stroke:#000000; stroke-width:100000.000000; stroke-opacity:1; 
stroke-linecap:round; stroke-linejoin:round;">
<path d="M10000 28190000
L-110000 28190000
" />
</g>
<g style="fill:#000000; fill-opacity:0.0; 
stroke:#000000; stroke-width:120000.000000; stroke-opacity:1; 
stroke-linecap:round; stroke-linejoin:round;">
<path d="M17890000 14990000
L17890000 28190000
" />
<path d="M-110000 14990000
L6670000 14990000
" />
<path d="M-110000 28190000
L6670000 28190000
" />
<path d="M15890000 14520000
L17420000 14520000
" />
</g>
<g style="fill:#000000; fill-opacity:0.0; 
stroke:#000000; stroke-width:100000.000000; stroke-opacity:1; 
stroke-linecap:round; stroke-linejoin:round;">
<path d="M-100000 28190000
L-110000 28190000
" />
<path d="M8940000 14990000
L8870000 14990000
" />
</g>
<g style="fill:#000000; fill-opacity:0.0; 
stroke:#000000; stroke-width:120000.000000; stroke-opacity:1; 
stroke-linecap:round; stroke-linejoin:round;">
<path d="M17890000 28190000
L8870000 28190000
" />
<path d="M-110000 28190000
L-110000 14990000
" />
<path d="M160580000 6870000
L160580000 6540000
" />
<path d="M154040000 6870000
L160580000 6870000
" />
<path d="M160580000 4130000
L160580000 4460000
" />
<path d="M154040000 4130000
L160580000 4130000
" />
<path d="M154040000 6540000
L154040000 6870000
" />
<path d="M154040000 4460000
L154040000 4130000
" />
<path d="M171540000 6540000
L171540000 6870000
" />
<path d="M178080000 4130000
L178080000 4460000
" />
<path d="M171540000 6870000
L178080000 6870000
" />
<path d="M171540000 4130000
L178080000 4130000
" />
<path d="M178080000 6870000
L178080000 6540000
" />
<path d="M171540000 4460000
L171540000 4130000
" />
<path d="M179361000 68929000
L179361000 62389000
" />
<path d="M179031000 68929000
L179361000 68929000
" />
<path d="M176621000 62389000
L176951000 62389000
" />
<path d="M176951000 68929000
L176621000 68929000
" />
<path d="M176621000 68929000
L176621000 62389000
" />
<path d="M179361000 62389000
L179031000 62389000
" />
<path d="M153730000 67370000
L160270000 67370000
" />
<path d="M153730000 64630000
L160270000 64630000
" />
<path d="M153730000 64960000
L153730000 64630000
" />
<path d="M160270000 67370000
L160270000 67040000
" />
<path d="M153730000 67040000
L153730000 67370000
" />
<path d="M160270000 64630000
L160270000 64960000
" />
<path d="M115000000 11500000
L127000000 11500000
" />
<path d="M127000000 11500000
L127000000 23500000
" />
<path d="M127000000 23500000
L115000000 23500000
" />
<path d="M115000000 23500000
L115000000 11500000
" />
<circle cx="121000000.000000" cy="17500000.000000" r="3000000.000000" /> 
<path d="M183031000 68929000
L183361000 68929000
" />
<path d="M180951000 68929000
L180621000 68929000
" />
<path d="M183361000 68929000
L183361000 62389000
" />
<path d="M180621000 68929000
L180621000 62389000
" />
<path d="M183361000 62389000
L183031000 62389000
" />
<path d="M180621000 62389000
L180951000 62389000
" />
<path d="M137040000 4460000
L137040000 4130000
" />
<path d="M143580000 6870000
L143580000 6540000
" />
<path d="M143580000 4130000
L143580000 4460000
" />
<path d="M137040000 4130000
L143580000 4130000
" />
<path d="M137040000 6540000
L137040000 6870000
" />
<path d="M137040000 6870000
L143580000 6870000
" />
<path d="M63408000 98009944
L48408000 98009944
" />
<path d="M48408000 98009944
L48408000 80009944
" />
<path d="M48408000 80009944
L63408000 80009944
" />
<path d="M63408000 80009944
L63408000 98009944
" />
<path d="M10000000 72009944
L12000000 72009944
" />
<path d="M12000000 72009944
L12000000 68009944
" />
<path d="M12000000 68009944
L10000000 68009944
" />
<path d="M10000000 68009944
L10000000 72009944
" />
<path d="M46408000 98009944
L31408000 98009944
" />
<path d="M31408000 98009944
L31408000 80009944
" />
<path d="M31408000 80009944
L46408000 80009944
" />
<path d="M46408000 80009944
L46408000 98009944
" />
<path d="M29408000 98009944
L14408000 98009944
" />
<path d="M14408000 98009944
L14408000 80009944
" />
<path d="M14408000 80009944
L29408000 80009944
" />
<path d="M29408000 80009944
L29408000 98009944
" />
<path d="M80408000 98009944
L65408000 98009944
" />
<path d="M65408000 98009944
L65408000 80009944
" />
<path d="M65408000 80009944
L80408000 80009944
" />
<path d="M80408000 80009944
L80408000 98009944
" />
<path d="M78083000 106549944
L48603000 106549944
" />
<path d="M48603000 106549944
L48603000 100469944
" />
<path d="M48603000 100469944
L78083000 100469944
" />
<path d="M78083000 100469944
L78083000 106549944
" />
<path d="M85000000 111009944
L10000000 111009944
" />
<path d="M10000000 111009944
L10000000 56009944
" />
<path d="M10000000 56009944
L85000000 56009944
" />
<path d="M85000000 56009944
L85000000 111009944
" />
<path d="M46333000 106549944
L16853000 106549944
" />
<path d="M16853000 106549944
L16853000 100469944
" />
<path d="M16853000 100469944
L46333000 100469944
" />
<path d="M46333000 100469944
L46333000 106549944
" />
<path d="M163730000 67370000
L163730000 67040000
" />
<path d="M170270000 67370000
L163730000 67370000
" />
<path d="M163730000 64630000
L163730000 64960000
" />
<path d="M170270000 64630000
L163730000 64630000
" />
<path d="M170270000 64960000
L170270000 64630000
" />
<path d="M170270000 67040000
L170270000 67370000
" />
<path d="M119280000 71895000
L129520000 71895000
" />
<path d="M119280000 61854000
L129520000 61854000
" />
<path d="M119280000 61854000
L119280000 62949000
" />
<path d="M129520000 61854000
L129520000 65450000
" />
<path d="M129520000 68300000
L129520000 71895000
" />
<path d="M119280000 70800000
L119280000 71895000
" />
<path d="M119280000 65801000
L119280000 67950000
" />
<path d="M133000000 11500000
L145000000 11500000
" />
<path d="M145000000 11500000
L145000000 23500000
" />
<path d="M145000000 23500000
L133000000 23500000
" />
<path d="M133000000 23500000
L133000000 11500000
" />
<circle cx="139000000.000000" cy="17500000.000000" r="3000000.000000" /> 
<path d="M119540000 6870000
L126080000 6870000
" />
<path d="M126080000 6870000
L126080000 6540000
" />
<path d="M119540000 6540000
L119540000 6870000
" />
<path d="M119540000 4460000
L119540000 4130000
" />
<path d="M119540000 4130000
L126080000 4130000
" />
<path d="M126080000 4130000
L126080000 4460000
" />
<path d="M47380000 2630000
L47380000 3075000
" />
<path d="M47380000 2630000
L53620000 2630000
" />
<path d="M47380000 4925000
L47380000 5370000
" />
<path d="M53620000 4925000
L53620000 5370000
" />
<path d="M53620000 2630000
L53620000 3075000
" />
<path d="M47380000 5370000
L53620000 5370000
" />
<path d="M176455000 58561500
L176920000 58561500
" />
<path d="M179080000 58561500
L179545000 58561500
" />
<path d="M179080000.005196 58256184.010848 A2500000.000000 2500000.000000 0.0 0 0 179080428.793813 53747021.430241" />
<path d="M176919172.968455 53213684.918636 A2990000.000000 2990000.000000 0.0 0 0 176455169.976577 58561500.038815" />
<path d="M176919571.206187 53747021.430241 A2500000.000000 2500000.000000 0.0 0 0 176919999.994804 58256184.010848" />
<path d="M179544830.023423 58561500.038815 A2990000.000000 2990000.000000 0.0 0 0 179080827.031545 53213684.918636" />
<path d="M91695000 71705000
L94355000 71705000
" />
<path d="M91695000 58945000
L91695000 71705000
" />
<path d="M91695000 58945000
L94355000 58945000
" />
<path d="M94355000 58945000
L94355000 71705000
" />
<path d="M94355000 56345000
L94355000 57675000
" />
<path d="M93025000 56345000
L94355000 56345000
" />
<path d="M63810000 13630001
L63810000 11090000
" />
<path d="M63810000 11090000
L56190000 11090000
" />
<path d="M56190000 11090000
L56190000 13630000
" />
<path d="M64826000 42586000
L55174000 42586000
" />
<path d="M55174000 42586000
L55174000 36998000
" />
<path d="M55174000 36998000
L64826000 36998000
" />
<path d="M64826000 36998000
L64826000 42586000
" />
<path d="M71430000 53000000
L48570000 53000000
" />
<path d="M48570000 53000000
L48570000 9185000
" />
<path d="M48570000 9185000
L71430000 9185000
" />
<path d="M71430000 9185000
L71430000 53000000
" />
<path d="M56190000.030574 13630000.081532 A10850889.000000 10850889.000000 0.0 1 0 63810000.051617 13630000.862353" />
<path d="M43180000 16540000
L43180000 19080000
" />
<path d="M40640000 16540000
L40640000 19080000
" />
<path d="M35520000 650000
L45760000 650000
" />
<path d="M35520000 16540000
L45760000 16540000
" />
<path d="M35520000 650000
L35520000 16540000
" />
<path d="M38100000 16540000
L38100000 19080000
" />
<path d="M45760000 650000
L45760000 16540000
" />
<path d="M194025000 56345000
L195355000 56345000
" />
<path d="M195355000 56345000
L195355000 57675000
" />
<path d="M192695000 71705000
L195355000 71705000
" />
<path d="M192695000 58945000
L195355000 58945000
" />
<path d="M192695000 58945000
L192695000 71705000
" />
<path d="M195355000 58945000
L195355000 71705000
" />
<path d="M86675000 16080000
L85565000 16080000
" />
<path d="M88165000 14390000
L87785000 14390000
" />
<path d="M99305000 10940000
L90675000 10940000
" />
<path d="M99305000 15487620
L90675000 15487620
" />
<path d="M99305000 15841905
L90675000 15841905
" />
<path d="M90675000 14390000
L90265000 14390000
" />
<path d="M99305000 15723810
L90675000 15723810
" />
<path d="M99305000 14306670
L90675000 14306670
" />
<path d="M99305000 13716195
L90675000 13716195
" />
<path d="M99305000 8400000
L90675000 8400000
" />
<path d="M99305000 14897145
L90675000 14897145
" />
<path d="M90675000 11850000
L90265000 11850000
" />
<path d="M99305000 16080000
L90675000 16080000
" />
<path d="M99305000 15015240
L90675000 15015240
" />
<path d="M90675000 15110000
L90265000 15110000
" />
<path d="M90675000 6770000
L90265000 6770000
" />
<path d="M99305000 14779050
L90675000 14779050
" />
<path d="M90675000 7490000
L90265000 7490000
" />
<path d="M99305000 14070480
L90675000 14070480
" />
<path d="M99305000 15960000
L90675000 15960000
" />
<path d="M88165000 11850000
L87725000 11850000
" />
<path d="M85565000 16080000
L85565000 14750000
" />
<path d="M90675000 9310000
L90265000 9310000
" />
<path d="M99305000 15369525
L90675000 15369525
" />
<path d="M99305000 14424765
L90675000 14424765
" />
<path d="M88165000 9310000
L87725000 9310000
" />
<path d="M88165000 6770000
L87725000 6770000
" />
<path d="M99305000 13834290
L90675000 13834290
" />
<path d="M88165000 10030000
L87725000 10030000
" />
<path d="M99305000 15251430
L90675000 15251430
" />
<path d="M99305000 15605715
L90675000 15605715
" />
<path d="M99305000 14542860
L90675000 14542860
" />
<path d="M99305000 15133335
L90675000 15133335
" />
<path d="M90675000 10030000
L90265000 10030000
" />
<path d="M90675000 16080000
L90675000 5800000
" />
<path d="M99305000 13598100
L90675000 13598100
" />
<path d="M90675000 12570000
L90265000 12570000
" />
<path d="M88165000 15110000
L87785000 15110000
" />
<path d="M88165000 12570000
L87725000 12570000
" />
<path d="M99305000 5800000
L90675000 5800000
" />
<path d="M99305000 16080000
L99305000 5800000
" />
<path d="M99305000 14660955
L90675000 14660955
" />
<path d="M99305000 14188575
L90675000 14188575
" />
<path d="M99305000 13480000
L90675000 13480000
" />
<path d="M99305000 13952385
L90675000 13952385
" />
<path d="M88165000 7490000
L87725000 7490000
" />
<path d="M18645000 11861000
L17748000 11861000
" />
<path d="M18645000 11981000
L17859000 11981000
" />
<path d="M22205000 10700000
L20725000 10700000
" />
<path d="M18645000 11181000
L17320000 11181000
" />
<path d="M20203000 12701000
L19167000 12701000
" />
<path d="M19969000 12741000
L19401000 12741000
" />
<path d="M20696000 12541000
L18674000 12541000
" />
<path d="M22050000 11181000
L20725000 11181000
" />
<path d="M21586000 11901000
L20725000 11901000
" />
<path d="M21622000 11861000
L20725000 11861000
" />
<path d="M18645000 10820000
L17194000 10820000
" />
<path d="M18645000 11381000
L17417000 11381000
" />
<path d="M18645000 10620000
L17149000 10620000
" />
<path d="M21549000 11941000
L20725000 11941000
" />
<path d="M22113000 11021000
L20725000 11021000
" />
<path d="M20600000 12581000
L18770000 12581000
" />
<path d="M22014000 11261000
L20725000 11261000
" />
<path d="M18645000 10580000
L17142000 10580000
" />
<path d="M21338000 12141000
L20725000 12141000
" />
<path d="M18645000 11661000
L17590000 11661000
" />
<path d="M21995000 11301000
L20725000 11301000
" />
<path d="M18645000 12101000
L17986000 12101000
" />
<path d="M20362000 12661000
L19008000 12661000
" />
<path d="M18645000 11621000
L17563000 11621000
" />
<path d="M20490000 12621000
L18880000 12621000
" />
<path d="M18645000 12181000
L18080000 12181000
" />
<path d="M21909000 11461000
L20725000 11461000
" />
<path d="M22083000 11101000
L20725000 11101000
" />
<path d="M21656000 11821000
L20725000 11821000
" />
<path d="M21290000 12181000
L20725000 12181000
" />
<path d="M21885000 11501000
L20725000 11501000
" />
<path d="M18645000 11061000
L17271000 11061000
" />
<path d="M18645000 11821000
L17714000 11821000
" />
<path d="M22261000 10300000
L17109000 10300000
" />
<path d="M18645000 11541000
L17510000 11541000
" />
<path d="M18645000 10780000
L17184000 10780000
" />
<path d="M18645000 12221000
L18131000 12221000
" />
<path d="M21860000 11541000
L20725000 11541000
" />
<path d="M18645000 11941000
L17821000 11941000
" />
<path d="M21428000 12061000
L20725000 12061000
" />
<path d="M21932000 11421000
L20725000 11421000
" />
<path d="M21410000 7585225
L20910000 7585225
" />
<path d="M20783000 12501000
L18587000 12501000
" />
<path d="M22246000 10460000
L20725000 10460000
" />
<path d="M21511000 11981000
L20725000 11981000
" />
<path d="M21068000 12341000
L20725000 12341000
" />
<path d="M22228000 10580000
L20725000 10580000
" />
<path d="M18645000 12421000
L18434000 12421000
" />
<path d="M22196000 10740000
L20725000 10740000
" />
<path d="M18645000 10941000
L17230000 10941000
" />
<path d="M22250000 10420000
L20725000 10420000
" />
<path d="M22067000 11141000
L20725000 11141000
" />
<path d="M21239000 12221000
L20725000 12221000
" />
<path d="M18645000 12341000
L18302000 12341000
" />
<path d="M18645000 12141000
L18032000 12141000
" />
<path d="M21975000 11341000
L20725000 11341000
" />
<path d="M18645000 10540000
L17135000 10540000
" />
<path d="M21689000 11781000
L20725000 11781000
" />
<path d="M20936000 12421000
L20725000 12421000
" />
<path d="M22099000 11061000
L20725000 11061000
" />
<path d="M18645000 10660000
L17157000 10660000
" />
<path d="M18645000 11421000
L17438000 11421000
" />
<path d="M22265000 10180000
L17105000 10180000
" />
<path d="M21128000 12301000
L20725000 12301000
" />
<path d="M18645000 11901000
L17784000 11901000
" />
<path d="M18645000 10460000
L17124000 10460000
" />
<path d="M21160000 7335225
L21160000 7835225
" />
<path d="M22254000 10380000
L20725000 10380000
" />
<path d="M18645000 11141000
L17303000 11141000
" />
<path d="M21720000 11741000
L20725000 11741000
" />
<path d="M21004000 12381000
L20725000 12381000
" />
<path d="M18645000 10740000
L17174000 10740000
" />
<path d="M18645000 11101000
L17287000 11101000
" />
<path d="M22176000 10820000
L20725000 10820000
" />
<path d="M20863000 12461000
L18507000 12461000
" />
<path d="M22264000 10220000
L17106000 10220000
" />
<path d="M18645000 11581000
L17536000 11581000
" />
<path d="M18645000 11221000
L17337000 11221000
" />
<path d="M22153000 10901000
L20725000 10901000
" />
<path d="M22241000 10500000
L20725000 10500000
" />
<path d="M22263000 10260000
L17107000 10260000
" />
<path d="M18645000 11701000
L17620000 11701000
" />
<path d="M22213000 10660000
L20725000 10660000
" />
<path d="M18645000 12301000
L18242000 12301000
" />
<path d="M22033000 11221000
L20725000 11221000
" />
<path d="M22235000 10540000
L20725000 10540000
" />
<path d="M21750000 11701000
L20725000 11701000
" />
<path d="M18645000 10981000
L17243000 10981000
" />
<path d="M18645000 12261000
L18185000 12261000
" />
<path d="M21470000 12021000
L20725000 12021000
" />
<path d="M21834000 11581000
L20725000 11581000
" />
<path d="M18645000 11341000
L17395000 11341000
" />
<path d="M18645000 11781000
L17681000 11781000
" />
<path d="M21953000 11381000
L20725000 11381000
" />
<path d="M22127000 10981000
L20725000 10981000
" />
<path d="M21384000 12101000
L20725000 12101000
" />
<path d="M22258000 10340000
L17112000 10340000
" />
<path d="M18645000 11741000
L17650000 11741000
" />
<path d="M18645000 11461000
L17461000 11461000
" />
<path d="M18645000 10420000
L17120000 10420000
" />
<path d="M22186000 10780000
L20725000 10780000
" />
<path d="M21807000 11621000
L20725000 11621000
" />
<path d="M22140000 10941000
L20725000 10941000
" />
<path d="M18645000 12061000
L17942000 12061000
" />
<path d="M21185000 12261000
L20725000 12261000
" />
<path d="M18645000 11501000
L17485000 11501000
" />
<path d="M18645000 10500000
L17129000 10500000
" />
<path d="M18645000 11301000
L17375000 11301000
" />
<path d="M18645000 10901000
L17217000 10901000
" />
<path d="M21780000 11661000
L20725000 11661000
" />
<path d="M18645000 11261000
L17356000 11261000
" />
<path d="M18645000 10380000
L17116000 10380000
" />
<path d="M22265000 10140000
L17105000 10140000
" />
<path d="M18645000 12021000
L17900000 12021000
" />
<path d="M22221000 10620000
L20725000 10620000
" />
<path d="M18645000 11021000
L17257000 11021000
" />
<path d="M18645000 10700000
L17165000 10700000
" />
<path d="M18645000 12381000
L18366000 12381000
" />
<path d="M18645000 10861000
L17205000 10861000
" />
<path d="M22165000 10861000
L20725000 10861000
" />
<circle cx="19685000.000000" cy="10140000.000000" r="2620000.000000" /> 
<path d="M159500000 50000000
L171500000 50000000
" />
<path d="M171500000 50000000
L171500000 62000000
" />
<path d="M171500000 62000000
L159500000 62000000
" />
<path d="M159500000 62000000
L159500000 50000000
" />
<circle cx="165500000.000000" cy="56000000.000000" r="3000000.000000" /> 
<path d="M186910000 22000000
L189910000 22000000
" />
<path d="M130892000 56148000
L150196000 56148000
" />
<path d="M189910000 18000000
L186910000 18000000
" />
<path d="M108910000 18000000
L105910000 18000000
" />
<path d="M109048000 22000000
L105910000 22000000
" />
<path d="M112500000 23500000
L183500000 23500000
" />
<path d="M183500000 23500000
L183500000 50000000
" />
<path d="M183500000 50000000
L112500000 50000000
" />
<path d="M112500000 50000000
L112500000 23500000
" />
<path d="M117000000 28000000
L179000000 28000000
" />
<path d="M179000000 28000000
L179000000 46000000
" />
<path d="M179000000 46000000
L117000000 46000000
" />
<path d="M117000000 46000000
L117000000 28000000
" />
<path d="M106000000 15000000
L190000000 15000000
" />
<path d="M190000000 15000000
L190000000 59000000
" />
<path d="M190000000 59000000
L106000000 59000000
" />
<path d="M106000000 59000000
L106000000 15000000
" />
<path d="M186910000.000000 18000000.000000 A2000000.000000 2000000.000000 0.0 0 0 186910000.000000 22000000.000000" />
<path d="M108910000.000000 22000000.000000 A2000000.000000 2000000.000000 0.0 0 0 108910000.000000 18000000.000000" />
</g>
<g style="fill:#000000; fill-opacity:0.0; 
stroke:#000000; stroke-width:200000.000000; stroke-opacity:1; 
stroke-linecap:round; stroke-linejoin:round;">
<circle cx="111000000.000000" cy="56000000.000000" r="1500000.000000" /> 
<circle cx="187000000.000000" cy="20000000.000000" r="1500000.000000" /> 
<circle cx="108910000.000000" cy="20000000.000000" r="1500000.000000" /> 
<circle cx="185000000.000000" cy="56000000.000000" r="1500000.000000" /> 
</g>
<g style="fill:#000000; fill-opacity:0.0; 
stroke:#000000; stroke-width:120000.000000; stroke-opacity:1; 
stroke-linecap:round; stroke-linejoin:round;">
<path d="M169000000 11500000
L181000000 11500000
" />
<path d="M181000000 11500000
L181000000 23500000
" />
<path d="M181000000 23500000
L169000000 23500000
" />
<path d="M169000000 23500000
L169000000 11500000
" />
<circle cx="175000000.000000" cy="17500000.000000" r="3000000.000000" /> 
<path d="M107730000 4130000
L114270000 4130000
" />
<path d="M107730000 6540000
L107730000 6870000
" />
<path d="M107730000 4460000
L107730000 4130000
" />
<path d="M114270000 6870000
L114270000 6540000
" />
<path d="M107730000 6870000
L114270000 6870000
" />
<path d="M114270000 4130000
L114270000 4460000
" />
<path d="M91695000 37270000
L94355000 37270000
" />
<path d="M93025000 34670000
L94355000 34670000
" />
<path d="M91695000 50030000
L94355000 50030000
" />
<path d="M94355000 37270000
L94355000 50030000
" />
<path d="M94355000 34670000
L94355000 36000000
" />
<path d="M91695000 37270000
L91695000 50030000
" />
<path d="M36970000 33660000
L36970000 30990000
" />
<path d="M1410000 33660000
L1410000 30990000
" />
<path d="M42180000 30990000
L39510000 30990000
" />
<path d="M-3800000 43950000
L-3800000 36070000
" />
<path d="M-3800000 36070000
L6620000 36070000
" />
<path d="M-1260000 49030000
L-1260000 43950000
" />
<path d="M6620000 36070000
L6620000 43950000
" />
<path d="M-1260000 49030000
L42180000 49030000
" />
<path d="M39510000 46360000
L1410000 46360000
" />
<path d="M42180000 49030000
L42180000 30990000
" />
<path d="M36970000 30990000
L-1260000 30990000
" />
<path d="M6620000 43950000
L-3800000 43950000
" />
<path d="M36970000 33660000
L39510000 33660000
" />
<path d="M36970000 33660000
L1410000 33660000
" />
<path d="M-1260000 30990000
L-1260000 36070000
" />
<path d="M39510000 46360000
L39510000 49030000
" />
<path d="M39510000 33660000
L39510000 30990000
" />
<path d="M1410000 46360000
L1410000 49030000
" />
<circle cx="81000000.000000" cy="23500000.000000" r="6100000.000000" /> 
<path d="M151000000 11500000
L163000000 11500000
" />
<path d="M163000000 11500000
L163000000 23500000
" />
<path d="M163000000 23500000
L151000000 23500000
" />
<path d="M151000000 23500000
L151000000 11500000
" />
<circle cx="157000000.000000" cy="17500000.000000" r="3000000.000000" /> 
<path d="M34290000 12065000
L24130000 12065000
" />
<path d="M24130000 19685000
L34290000 19685000
" />
<path d="M34290000 19685000
L34290000 12065000
" />
<path d="M24130000 12065000
L24130000 19685000
" />
<path d="M34290000 18415000
L24130000 18415000
" />
<path d="M25820000 5470000
L25820000 2530000
" />
<path d="M25700000 5470000
L25700000 2530000
" />
<path d="M21280000 5470000
L26720000 5470000
" />
<path d="M20260000 4000000
L21280000 4000000
" />
<path d="M21280000 2530000
L21280000 5470000
" />
<path d="M26720000 2530000
L21280000 2530000
" />
<path d="M25940000 5470000
L25940000 2530000
" />
<path d="M27740000 4000000
L26720000 4000000
" />
<path d="M26720000 5470000
L26720000 2530000
" />
<path d="M390000 12730000
L390000 2510000
" />
<path d="M13610000 9920000
L13610000 12730000
" />
<path d="M390000 2510000
L3450000 2510000
" />
<path d="M14800000 6620000
L14800000 8620000
" />
<path d="M13610000 12730000
L7550000 12730000
" />
<path d="M3450000 12730000
L390000 12730000
" />
<path d="M7550000 2510000
L13610000 2510000
" />
<path d="M13610000 2510000
L13610000 5320000
" />
<g >
</g>
<g >
</g>
<g >
</g>
<g >
</g>
<g >
</g>
<g >
</g>
<g >
</g>
<g >
</g>
<g >
</g>
<g >
</g>
<g >
</g>
<g >
</g>
<g >
</g>
<g >
</g>
<g >
</g>
<g >
</g>
<g >
</g>
<g >
</g>
<g >
</g>
<g >
</g>
<g >
</g>
<g >
</g>
<g >
</g>
<g >
</g>
<g >
</g>
<g >
</g>
<g >
</g>
<g >
</g>
<g >
</g>
<g >
</g>
<g >
</g>
<g >
</g>
<g >
</g>
<g >
</g>
<g >
</g>
<g >
</g>
<g >
</g>
</g>
<g style="fill:#000000; fill-opacity:0.0; 
stroke:#000000; stroke-width:120000.000000; stroke-opacity:1; 
stroke-linecap:round; stroke-linejoin:round;">
</g>
<g style="fill:#000000; fill-opacity:0.0; 
stroke:#000000; stroke-width:100000.000000; stroke-opacity:1; 
stroke-linecap:round; stroke-linejoin:round;">
<path d="M100000000 0
L196000000 0
" />
<path d="M196000000 0
L196000000 74000000
" />
<path d="M196000000 74000000
L100000000 74000000
" />
<path d="M100000000 74000000
L100000000 0
" />
<path d="M0 0
L95000000 0
" />
<path d="M95000000 0
L95000000 74000000
" />
<path d="M95000000 74000000
L0 74000000
" />
<path d="M0 74000000
L0 0
" />
<g >
</g>
<g >
</g>
<g >
</g>
<g >
</g>
<g >
</g>
<g >
</g>
<g >
</g>
<g >
</g>
<g >
</g>
<g >
</g>
<g >
</g>
<g >
</g>
<g >
</g>
<g >
</g>
<g >
</g>
<g >
</g>
<g >
</g>
<g >
</g>
<g >
</g>
<g >
</g>
<g >
</g>
<g >
</g>
<g >
</g>
<g >
</g>
<g >
</g>
<g >
</g>
<g >
</g>
<g >
</g>
<g >
</g>
<g >
</g>
<g >
</g>
<g >
</g>
<g >
</g>
<g >
</g>
<g >
</g>
<g >
</g>
<g >
</g>
</g> 
</svg>
